<mxfile host="app.diagrams.net" agent="Mozilla/5.0 (X11; Ubuntu; Linux x86_64; rv:137.0) Gecko/20100101 Firefox/137.0" version="26.2.9">
  <diagram name="Page-1" id="Zr9qWKBYL-RKLCPpI1ju">
    <mxGraphModel dx="2181" dy="1900" grid="1" gridSize="10" guides="1" tooltips="1" connect="1" arrows="1" fold="1" page="1" pageScale="1" pageWidth="850" pageHeight="1100" math="0" shadow="0">
      <root>
        <mxCell id="0" />
        <mxCell id="1" parent="0" />
        <mxCell id="-GoEM59PpmFT0iwk-8x2-19" style="edgeStyle=orthogonalEdgeStyle;rounded=0;orthogonalLoop=1;jettySize=auto;html=1;exitX=0.5;exitY=0;exitDx=0;exitDy=0;entryX=0.5;entryY=0;entryDx=0;entryDy=0;" edge="1" parent="1" source="-GoEM59PpmFT0iwk-8x2-4" target="-GoEM59PpmFT0iwk-8x2-18">
          <mxGeometry relative="1" as="geometry" />
        </mxCell>
        <mxCell id="-GoEM59PpmFT0iwk-8x2-9" value="" style="rounded=0;whiteSpace=wrap;html=1;fillColor=#f5f5f5;fontColor=#333333;strokeColor=#666666;" vertex="1" parent="1">
          <mxGeometry x="-230" y="340" width="170" height="60" as="geometry" />
        </mxCell>
        <mxCell id="-GoEM59PpmFT0iwk-8x2-20" style="edgeStyle=orthogonalEdgeStyle;rounded=0;orthogonalLoop=1;jettySize=auto;html=1;entryX=0.5;entryY=1;entryDx=0;entryDy=0;" edge="1" parent="1" source="-GoEM59PpmFT0iwk-8x2-11" target="-GoEM59PpmFT0iwk-8x2-18">
          <mxGeometry relative="1" as="geometry" />
        </mxCell>
        <mxCell id="-GoEM59PpmFT0iwk-8x2-11" value="" style="rounded=0;whiteSpace=wrap;html=1;fillColor=#dae8fc;strokeColor=#6c8ebf;" vertex="1" parent="1">
          <mxGeometry x="20" y="270" width="50" height="180" as="geometry" />
        </mxCell>
        <mxCell id="-GoEM59PpmFT0iwk-8x2-13" style="edgeStyle=orthogonalEdgeStyle;rounded=0;orthogonalLoop=1;jettySize=auto;html=1;entryX=-0.075;entryY=0.556;entryDx=0;entryDy=0;entryPerimeter=0;" edge="1" parent="1" source="-GoEM59PpmFT0iwk-8x2-9" target="-GoEM59PpmFT0iwk-8x2-11">
          <mxGeometry relative="1" as="geometry" />
        </mxCell>
        <mxCell id="-GoEM59PpmFT0iwk-8x2-30" style="edgeStyle=orthogonalEdgeStyle;rounded=0;orthogonalLoop=1;jettySize=auto;html=1;exitX=1;exitY=0.5;exitDx=0;exitDy=0;entryX=0;entryY=0.5;entryDx=0;entryDy=0;" edge="1" parent="1" source="-GoEM59PpmFT0iwk-8x2-18" target="-GoEM59PpmFT0iwk-8x2-33">
          <mxGeometry relative="1" as="geometry">
            <mxPoint x="640" y="235" as="targetPoint" />
          </mxGeometry>
        </mxCell>
        <mxCell id="-GoEM59PpmFT0iwk-8x2-38" style="edgeStyle=orthogonalEdgeStyle;rounded=0;orthogonalLoop=1;jettySize=auto;html=1;exitX=1;exitY=0;exitDx=0;exitDy=0;entryX=0;entryY=0.5;entryDx=0;entryDy=0;" edge="1" parent="1" source="-GoEM59PpmFT0iwk-8x2-18" target="-GoEM59PpmFT0iwk-8x2-31">
          <mxGeometry relative="1" as="geometry" />
        </mxCell>
        <mxCell id="-GoEM59PpmFT0iwk-8x2-18" value="" style="shape=orEllipse;perimeter=ellipsePerimeter;whiteSpace=wrap;html=1;backgroundOutline=1;" vertex="1" parent="1">
          <mxGeometry x="180" y="220" width="30" height="30" as="geometry" />
        </mxCell>
        <mxCell id="-GoEM59PpmFT0iwk-8x2-28" style="edgeStyle=orthogonalEdgeStyle;rounded=0;orthogonalLoop=1;jettySize=auto;html=1;exitX=1;exitY=1;exitDx=0;exitDy=0;entryX=-0.02;entryY=0.467;entryDx=0;entryDy=0;entryPerimeter=0;" edge="1" parent="1" source="-GoEM59PpmFT0iwk-8x2-18" target="-GoEM59PpmFT0iwk-8x2-32">
          <mxGeometry relative="1" as="geometry">
            <mxPoint x="608.96" y="333" as="targetPoint" />
          </mxGeometry>
        </mxCell>
        <mxCell id="-GoEM59PpmFT0iwk-8x2-39" style="edgeStyle=orthogonalEdgeStyle;rounded=0;orthogonalLoop=1;jettySize=auto;html=1;" edge="1" parent="1" source="-GoEM59PpmFT0iwk-8x2-31">
          <mxGeometry relative="1" as="geometry">
            <mxPoint x="440" y="30" as="targetPoint" />
          </mxGeometry>
        </mxCell>
        <mxCell id="-GoEM59PpmFT0iwk-8x2-31" value="" style="rounded=0;whiteSpace=wrap;html=1;fillColor=#dae8fc;strokeColor=#6c8ebf;" vertex="1" parent="1">
          <mxGeometry x="330" y="-60" width="50" height="180" as="geometry" />
        </mxCell>
        <mxCell id="-GoEM59PpmFT0iwk-8x2-41" style="edgeStyle=orthogonalEdgeStyle;rounded=0;orthogonalLoop=1;jettySize=auto;html=1;exitX=1;exitY=0.5;exitDx=0;exitDy=0;" edge="1" parent="1" source="-GoEM59PpmFT0iwk-8x2-32">
          <mxGeometry relative="1" as="geometry">
            <mxPoint x="440" y="460" as="targetPoint" />
          </mxGeometry>
        </mxCell>
        <mxCell id="-GoEM59PpmFT0iwk-8x2-32" value="" style="rounded=0;whiteSpace=wrap;html=1;fillColor=#dae8fc;strokeColor=#6c8ebf;" vertex="1" parent="1">
          <mxGeometry x="330" y="370" width="50" height="180" as="geometry" />
        </mxCell>
        <mxCell id="-GoEM59PpmFT0iwk-8x2-40" style="edgeStyle=orthogonalEdgeStyle;rounded=0;orthogonalLoop=1;jettySize=auto;html=1;" edge="1" parent="1" source="-GoEM59PpmFT0iwk-8x2-33">
          <mxGeometry relative="1" as="geometry">
            <mxPoint x="440" y="235" as="targetPoint" />
          </mxGeometry>
        </mxCell>
        <mxCell id="-GoEM59PpmFT0iwk-8x2-33" value="" style="rounded=0;whiteSpace=wrap;html=1;fillColor=#dae8fc;strokeColor=#6c8ebf;" vertex="1" parent="1">
          <mxGeometry x="330" y="145" width="50" height="180" as="geometry" />
        </mxCell>
        <mxCell id="-GoEM59PpmFT0iwk-8x2-37" value="" style="edgeStyle=orthogonalEdgeStyle;rounded=0;orthogonalLoop=1;jettySize=auto;html=1;" edge="1" parent="1" target="-GoEM59PpmFT0iwk-8x2-4">
          <mxGeometry relative="1" as="geometry">
            <mxPoint x="120" y="122" as="targetPoint" />
            <mxPoint x="-54.32999999999993" y="122" as="sourcePoint" />
          </mxGeometry>
        </mxCell>
        <mxCell id="-GoEM59PpmFT0iwk-8x2-4" value="" style="shape=trapezoid;perimeter=trapezoidPerimeter;whiteSpace=wrap;html=1;fixedSize=1;rotation=90;fillColor=#f8cecc;strokeColor=#b85450;" vertex="1" parent="1">
          <mxGeometry x="40" y="66.25" width="153.75" height="112.5" as="geometry" />
        </mxCell>
        <mxCell id="-GoEM59PpmFT0iwk-8x2-42" value="" style="shape=image;verticalLabelPosition=bottom;labelBackgroundColor=default;verticalAlign=top;aspect=fixed;imageAspect=0;image=data:image/png,iVBORw0KGgoAAAANSUhEUgAAAgYAAAHPCAYAAAAoMBJBAAAABHNCSVQICAgIfAhkiAAAABl0RVh0U29mdHdhcmUAZ25vbWUtc2NyZWVuc2hvdO8Dvz4AAAAldEVYdENyZWF0aW9uIFRpbWUARG8gMTAgQXByIDIwMjUgMTY6NDQ6NTZ7HYWQAAAgAElEQVR4nOydd5wbZ53/39I21/W6O1571iWTZkPiTAiEhDSJI5QfgYQE3VFyCRwcd3C0INEPONoscJTjgIMAB6GIFGqAABJJSELJoTidJHKKxiXu3bteb9Hvj5mRZp55Rm216y3P+/WSLT3PNEmzej7P9/mWSLFYLKJQKBQKhUIBRI/3BSgUCoVCoZg4KGGgUCgUCoWihBIGCoVCoVAoSihhoFAoFAqFooQSBgqFQqFQKEooYaBQKBQKhaKEEgYKhUKhUChKKGGgUCgUCoWihBIGCoVCoVAoSihhoFAoFAqFooQSBgqFQqFQKEooYaBQKBQKhaKEEgYKhUKhUChKKGGgUCgUCoWihBIGCoVCoVAoSihhoFAoFAqFooQSBgqFQqFQKEooYaBQKBQKhaKEEgYKhUKhUChKKGGgUCgUCoWihBIGCoVCoVAoSihhoFAoFAqFooQSBgqFQqFQKEooYaBQKBQKhaKEEgYKhUKhUChKKGGgUCgUCoWihBIGCoVCoVAoSihhoFAoFAqFooQSBgqFQqFQKEooYaBQKBQKhaKEEgYKhUKhUChKKGGgUCgUCoWihBIGCoVCoVAoSihhoFAoFAqFooQSBgqFQqFQKEooYaBQKBQKhaKEEgYKhUKhUChKKGGgUCgUCoWihBIGCoVCoVAoSrQe7wtQKHzssoJte/L+14t1WKiNz/UoFArFNEMJA8Xx4/6s//XWHFgpf1sUmCHsd3ZGCQOFQqEYIyLFYrF4vC9CMQ3YIVgCIsD1Pf62FqCDYJtXGESx5ewKs9y2xICTYvbze3thtyAunluAeRoctmBr2t/XacAJsTreiEKhUExtlMVAMT58QxABrUCbsE07UItMjQLbvIO/WRYG3m0izvOnHTGwyIADgmjAVMJAoVAoPChhoGg+2y34L48QiBK0BLRSmwgYDa4w2OOIgRYzdFOFQqFQ2ChhoGg+W/L+QX80ImC1CSuN8usIcH+88WtTKBQKRUWUMFA0l+0W3NzEgfuFSf/rvZKohbHmmOSc7cr5UaFQTE2UMFBMbHZbsEjzC4IzMvb/i/Tg9mcmgSRYWdgkCJROA1YVKp+v34ItEqfImcJ2CwtKHCgUiimJEgaKxnirs4DfQnktH+T+BDJOlqz3bxYcAyPAzT1weQEeScMWof+SAiwIGZy1GHRJRMAcNZgrFApFJZQwUIw9w8B6QQicnYClnkF6lxUUBvVywIInhHDEBQasGmXUQZGxd5RUKBSKCYISBorqXO2YBKLYFgL3uft/JLiLj3UmXJ6sslGT2CUJR6xFGPRb0JeHvpy8XxQGA3l5QvFWZZFQKBSTGyUMFPXhioCwGfQI8MoMaJL1/0os1uBfivDbXnhqlJaDRtidhiMp+/3VUkFkKAdHBB+GVhNax0kAKRQKxRihhIEinK0WPO0JPRxp8DjL6phFdxuAxP9gaUj7Pgv2OrUU9uRgCHtgb7Q8WBF76QOgpwAzNTiUhYMqRFKhUEwPlDBQhPN0Hv7HMyDKBlvDhKucWfJ2Cz7f4w9X3GBCoo5Z9LqY/RBZpMHJkvY/98IOwcLQXvvpAOiz4NAorRQR5zHiiZ6IqmUFhUIx+VDCQOHnf3rh984g2UrZp2AycUoGFtS5lFGJuTHoECIchvIw6DyP4KR3TsGA89lFTehQywoKhWLyoYSBonZGgKsysKrKoOs15T+Ysh+vzMBZ41SToEu3iyaNlpmeY4g5C6JA0VnaiACIFgfxtQGomgwKhWLio4SBoj6KwPJJaiI/JMlgODfkvcyuUlehVSs7Go5YZUuBD6HQkxIGCoViEqCEgSIc19nwIhNOdeoVPJ6D6wVHvA8XymJhgwn3j2NUwWIDFmf8bfMlg/0hCx4SMhp2mXDqKMz9A1k4FrctBrIlF0/kxgjvY9AT1tlGgiiTVGApFIopjRIG05U/ZOGhXDAHQSZVvitGnMeLE9DtDGKbQuL8wY4+SCThRAN+Mk5e/GubMAufpcFpo8xg5O7uVnCMBsXRCB/xPDeUMFAoFBMSJQymK58Omem+2IS3eGbRbsji005I4N2pxkMBq/FQFu4SBMV5GVg/jib4oxbsE7InzjSgq8I1eEMcWwzo0KEYFAbV8kApFArFREAJA0Vlns7DNzyDdS2hgGfF4KxJnEO4X5I9sZIwqJGIJxHEEDmg7MTZqqwHCoVigqCEgWJy8sde2C4M4BcV5P4FLl2CQ+E8w/+634L+vD+RU6PWkUjZ72GEHMN80Nc9xMfp59Ol13O5T4kDhUIxIVDCQCHHXUL4W648UEaAY8A/ZeDcSeZhP1er7GjYb0FBcE6slkGxIwYdYZaR8iBfBEbGbP1FoVAomosSBtOV92aCbWs8+QmezsNXhfX+WgomKWoiwgjRhnNMKxQKxdihhMF0YLMkfv/8Bmb85zthi26Co2ckxz2hgjn8p73wN8H8f02hXH55fQzWN9E34cFe2Cucb0MBOms02c80YXFi1JcRQSfKx0qvhzzRCQqFQjHRUMJgOvC6nmDb7Q0MwKca/iUEKw8/EKwK/5CB506yZYZKzBj9un8UjSjlZYw+PhnYZg/PKT1fyo5Rn1OhUCgaRQkDRe18Iw7f8rx+k2Q5YrTstmBH3t+2VLeLKHl5fhJoIDnRgXy4xUDMdjhLcE7sy8IxIY/D7AS0jV48eFdoBrFoU46ICoXiOKGEgcLPXVn7/0dy5dj8t2ZsUTAe/gU78nC3YIU4NxMUBrUiXvNTcVgpsZbM1GBlDUJjUFiaGDSaIgy8HCOvhIFCoThuKGEwVbk9W/8+Wy34kjAox91Mfs5rd0ytRyTssGBrHh4RBtVp6sg4j/2l5ztZehyvRKFQKIIoYTAV2WzB+z0DfJvz/6uqFAaScVcK/ii0uSJB0+E5NRxzax5+JQiOl2TgzDHwRdjYW/u2fRLnyVnNmKlLjqssAAqFYpKghMF0YBB4tQlvG0XBIBknaPDaJh+zGo9LLCEneQTGbsEq0VHhWE9JnDLX1emUOZSzczsAtOjQogF5QKwVkUFWXXE2P+AI/+BrO8jr6eOdAHRyJR1KVCgUinFECQNF/fxHoVxUqRn8yjPLj2D7NrR5+p9xij0t02GjMOB2m2VhcEAyUy/iT1I0vwGricusGLQVYCgPA47PRTEFA55t5hYpkqu4SiJbPpjNDxhgIwN8nhEiHOVLABzmqyzjNmY64uAZbgvsewIXAVDgjkBfDxfU/PYUCoUClDBQiPybEGnwWA7uFGbhT+ebKwyekJRp9s70rZRtnX9FofJx9ud9pY4BezY/0/O6Z5R5Cdo0GHCKLDUxmeFsYgwDR6T1m20Os5nNvNfXNo+/5wQu4gCbeUwIg1zE/ysJg8e5i5084us/jZeygO6q13Yf/xdoO8MTXqlQKKYWShhMNLJZyAkhcYkEaDUMxF/ohetT/lS+/2DC6Qas1SvtadOtlQf8rc7s+zFJmeX/jcP3hbavVDDBd+u2T4HYdjzYli5/Nu4SQCuVB/nDWTgsWCpaCVamrJOIR8Xsp5ehMfbG3Mrvfa+XcFpNwuA33BxoG60w2MpefsnDvrbTWMp5nATAH3g6sM/5rAJgM4cDfSuZA4BFf6BP8ylDhUJRDSUMJiKmMIM2jLIw+H0W3iQMUl/PwMWe9esRyvUNbkwR+F3/WMYvFFZKRMev03B7Sl4voIi/fkK18WypVs5u6GWXBc9IZvnNHB9PysACz3vdnoaDwuc7x2zq7H8EiApvotpbGuSzDNGK+CcZYYRtXAxAJ99o3kVOAG5ja6DNFQaf5NFAnysMrhAEBcCfeS4AN7KHb3DE1/dbNDRm8ln28dmSGrS5hwVotNHLIB8WUlQ/Thuac2Nkh4LXH3O+KutYsE+rpQqpQjFBUcJgOvLxeHkgbAde6ll3/03Kbmuj8mjmHczd7e6ROAae7QiWHRZsExIXbckFlxGqDdAbBMvDohosD3M9omS7pH9JAmY3sDTi/Qxavb4LBiP8zrdpi8TxUKSVIeBdHOF/iDIS+PiPsJEWhhkeralCURfWCMQH/W1m1BYG1jHo2SP0tUNyIVj90PO00Dcbks6tFhGjfYDi8+3/e/8a7EueZf+ffSzYFzvZudZdwT5tsdMnSaipqWhZhQQlDCY7LcDb43C1Cd91BtkItc+Ao8Cvnf06sAVBkbKZfQblAbDaeHRTvHzM0vEz5X1/LVg62vA7GUL52oeA8wQRsECzHyJ/7S3v617r4jqcDI/k7XLLLoucQfyYLOzQodWEdk9mxBnlgb+aCFjipDzexZJAXxdX0sWV7ONG+vmqr6+fbzCDKDN5AzPZAMBcTiz1n8z7hWOtqXgdiolLamewzY3/iUtW94qOMOi5UdL3L07fNyV9zi0TkQQXFd0/q3+S9DnGq+xdwb7Yefb/1uZgn7ayep/i+KOEwVQgCnxH4sDXDIqUMyBeaMKfaziPVxj82BEDV9SRPjmCLQxOqzHPwU7JNZ1ZRxjlTo8FZbZZFga7e8rXI07fWw2fGGgWh7mBY0To52uhBptOzmCRE4ngMo/Kv6oncR6LWN3QNb2IyxvaTzH1iX8x2FZ0hEHPNZK+39mioOcyf7v5Gki+AywLeoQ/K/OfIflup0/IUm6+B5LJxl2zLGuAfH7A16brHWhapTjnqY8SBhONWAw2VvG+r0aYxaCRdfQicFGF2fc5JlwlDMKyZYbxJArcJpx4oQnPTsLyhP0A21LgFQVhyN5D++idJ2fxQw7zGl/bEF/kCLOklxShSJQifWwEx+/AyxP8jN38wtf2XK4riYYwR8PdbONeYemjm5NYxzlAZUfD7exkC9t8bStYzjLHGrKNoG17OYvpZgGf5e9Cj/t+TgntS9AV2reBWUgmuIppQMpvMPO5ZoWRTh8klTrqaysUgpa8WrGs/fT0/MHXZppLSSafO4pj7iCf3+Jr0/UVaGO4DqSEQYMczAbX0ztjZak7bAXN0C21RBZA5bv54hhs8oy8lgX/T5Kop9czQz9Rtx0M78ja/gVQHryHqHwXDAJvdAb+P2XhT0L/SYa4R9nCQJVjn2TCamf/OyTLEGOB15cgAuwe4/NVoA2dYohyGnE+iBGigm9mE8tSe3gq8MVSEgaV2MI2buZWX9vlXMIylrCNXfyH4Pn6PFZzFS8CoJsFFY/9IP7F+zXMZwXzuJxuNnHQ17eZw6xkDhezgItDjnst87k25FxJ2iqW5MoIS1665z41BUdDY3pPNhVNJp2+k1TqIV9bofCWMT2nEgYNMGBZHIz718s7TNOe7Tv09wQH6zlF50e9txc+IJi/nyiUBUGvJK1v0vnZ+n0WNkoWGb28zoSLajRzpzwRCu+UCIwbnGveZkGPDld7BEePZ9b8TIX1eIDlOrw4E2xzoxW2jSLx0PFgMA/t1YXeCBbHONnXFuWjtNdYGTJCUSoejjhpl2dP0ayID7KHWwRrw6WOP8UmDvI+Ie30p9BKIYthWAxyNnt9bdfSzrXMB6CXwcA+SdrQoqCFCFbNcTSU9s2Ewqrw63EdDWUUKvRlJFrcxazgVmKeFt6nUHhRwmAi8hnJmnnSM5B8LWU787nOgO648aWMbR2olxXO4FJ0juV1MkxE4GITnmXANwXnwTdk4BxHgHyuRz7bvywDT+XgG4LoeEnGH8J4SchA+VgWtgtCaH0CFmqw34LH08FJ9GIzGJIoY6dsX08CpA5HrIgVFZtOeeBvYZhZ9HOMdoZCvD0P8y32813mcBVreNcYX9v0QQxXhIYKe/vI90FccCTMLIHYQshuhbiwapjpgZiz4pPe5O8zFkJstR2BIEYmZB+z25OXBCMTrF12ZELyFeHXWaxQYqRYIUo28/bwPvPSCn3+FTSM08O3VYw/ShhMBbyDm2t12GzBq4XB2A1DbAZR7ORHrtVgBLkwOCtmtz8utP86Dt0FeX4Dkc3CwLzMsIUByB0PFxoIluYgfRYcluQzmKXBUWc2OtsRCYeB4drFwZDnQy4GlBYM8h+lNDwtDDNCiy84sYUhFvK/tHMifWxiJ/9a03kX8qyar1Ex8REjE0xsYWDtDUYmmCtsYWDtCkYmmGtswQAQ8SfHBMqRCb0/DPYl/97+PxtcaSJ2jh2BIEYmZO+y25NvDUYfWJvt6IPkO4LHA/vnq5iv0CcJxwTbWFt4Ut5XCcPoIJPxr/1Md8dDUMJganJ7Ft4nzO5lNQgAHszBGl2e5KgSrcBfU/bD2+Zlw3FaHujS4aJRrMVvkyypuLmH3DF+MA5HhPc3u/b55SCfAcJ9M2dyIu1ozERjFr/hMJvYjv/X9CDXg8di0MMF0toIe9lK1inK5LKcGOfyZgAWsZzL+bD0Ou7jHiye8LU9jwtZwgmA7Wh4OZf4+lew3LOtPxLipBoyLSqOD6mNwTZXGMS/HewrOi4o8S9J+tzIhDdI+n5b+TosC9KCuDE2QMzxt5W4dxGL2cJB7MvnfSu8kv06K19MnWhaF8Xiy5t6TMNYTSbj/zsaS8dDmKbC4KDEMbCzVsdAd/uMf728Q/eb8FvMMRwUR+vp753Z/8IZ2N9a46AWJTzb4TD+yfGJBmyv4HuwLW9nPjxjDMovjwVtJsxyFniH4xIrQu3CIFKHE+FMNEYg4GsQAR7nCyzncuZUCVesxiLPYC7yKP4RQ2NtSRgsY0kpAkFkOYtLjoYid/EYX+FeX9u/cCbnOf4Yl3JiyafAZQXzADiRTj4l+FaciP0Db9HPJvqEvlkqLfIkI/U1/2vzn21hYFkQF8qdmO+xB3/LgvglQt8nKgsDgGz2IPG438SYyXRWFQ2WdYh8/oCvTdfnoWlzq+y3J9CmaSGOKkAsVsGpZIyYlsLASqfZm/L/qJ9RKPjEQZ9EPMyqUTwMZLNEDf+X2eHendmsHUdzq0dYuH2WZUvc93hEhWGAKzqyjuOhOz54l0TfaMJ9Tt/9FZwTw0z+AO9wrunLYslg7CWDc508BmHCxBUNLjfF4Z0VQi9vjcNp5tgLg0MScdJI8sAOA2Y711ptqcIhQpFWhmh1HNsO0csQnybq+/Jc547KjAiJlkeIcJDv08npoxYGEw1XBMhYyZxQR8Mb2c11Qkrk32BbgDTa2C6pbOnyeIV1NmsE8oILgu44JVZKiazPsrMdKqYe6XSBVGqfr61QOKPiPpa1h56eX/naTHMlyeSFzb68UTEthUEtPCmJKljvRBUcTKc5KgiLJQV7ABy2LAaEiIUW0ywLg7+TDLrDzuwxn4crhP4bM2W/gTc6Mfet2GOJO+l8k2mPK9en4HqQpNy3ESepbtrj36TsB8BXC5AOmc1enbTP/6c6nfHOjMHTJvxNst9jKfiCp/01BVjsEWAnx2BRiLjo0uA8SV8UeMDjTXVIImbWZGCpECUxu0bHzSGrqVGDc/k+rfjP3S7MiGejMUjrcUkLMV3QKsTKpgchJQiDgrMUnT4EKUEcFBba4kCbWU6BLBLrhmLIyorWBWaFcHoxMkFfXH4uRiYYK8KPo1DIUMJguhCheY6H4B8Yn+tYOB6sIBguS8LOBHxLsn5fjYUVLDVdkr6DFuz1XIvsfc/W/TUUXAas2pZqKhR+apWEvXk3E5cR2tE5zCb6BZP9fK5ghkcgrKCXQ9zPQaG05UHu55gwqHWxhs4arAi7heREUHlZQTF+hKVF1hZA+iFI+XPeULjEjj4wVkDO05fbAvpSu68oJAHy7f/O8L7M1RX6/i28z2zucrtinFDCYCoiS1okWq5r5e4sPOpZmrg7FTx2PAHLNUgDGyXi4N6sHbLY7OnuPskSwfwmxPWLE8cZJiyt4j/QMnqfkn6+4ns9kw0+YXACFxEBDvID31d4gB+wnx9yiPLa5nMoe4stoJsruEF6zvv4DQXu9rVdysdK4uAMzmZ5iMC4gR8H2q7kMsmWivEktwVSgod+osZl6p7P+1+bG2wHRL0H0r8Jbu9GJlhCoUxrK2jdlSMTwtA0KEgcDF0yaf9rr3tX5tbwPkXtTEth0GUYMJbOgWOFWwJ5NCmH3ZLMl5n2t/+rGpYF7hS2uSoDqz1/ccudwWutAWsF8/wyDe5OwyMpf6rm05xSx5sazBGwz4I/CNaHpSY8r0YHwK1pmGfAPOGX42hIrFStFLOA38djOGJ/ZS0kpLvUwzIu4iD/wAF+MOpj1YrraCjyAH8LtF1Z4zHP4+SSo2E93M423o9/+eiT9HChI2Q2MIv/Zpav33U8tDhGXii7rNOORjuWJIdBpaWF6UhKCFk0sYWBtRV6BGuDGYPkm526CEJkgvnysmAIq5kA4ZEJYvRBPl+OPqjkBmZZw4E2TWshFuukWKw/OsEwushk/Om5qzkegu1T4D/OsrrPPdZMS2GwIhZjRRVX1TkVhEOHYdAhRiV47kixr1XXKbrOjJ8qHzfiOih6HR3f6/S7fbpe/iso4vctAHuw/UbKrozocpUJN0oGXPe376NOtsNb0sFtvGytks3QZZuz3XM8n6kbjeCNSvAWZDonAX9Nj30KZCg7XHrPdSAFEROO5YL5DGbSmHPiiAWRHBT9xytGWikSYYTmeBfP5fRxFQaTiYsJ9+6+gcN8ThAGf3HSJ+cZ4WUM+fpuoZWY8xNptEBGuCfcbIhGhz1IyrD6gm3arGCbIkgjkQmVyOeHicf9338m004s1h6yh002u4tczu/QmkgsIRar7LyRzQYTK8Riayaco6GMaSkMqrEzm2WWEFWwxLnrtkvSFS9LJhmyLA4JDoutpslcJ2PhcCQ4tW/xpkj+uDA4PeSkSLYs+EfHITHs24rgXyp4VUIuDIaBK0y40PMXFLassNWCVE9wQHXJpOEe4RzvL9jWg+0WfNnzWbSFHOOlSQIhfrstuE74rFaZEHe2u7sXtqeCGRq9dGqwwCz7GQw7jxnCdRxM2eWlZUsHs70llXXb4XDQY01oMaHNAHIwkgJScCxVduiUMEyVVNaKCUuswi9lbI79kBGa+XARWIeg50F/n9kFSSd1cebUxq9X0TxyuSOkUod9bYlE9UJL8fjDgbZisfFS6NnsveRyTwnXcd6Y5DSYtsLgLslAfZ4zUG+PByMHljh9YjQC4E9XPFFIOHOYH3l8AiLAj1P2QPi2UVzz47nGZtTV2GXBzvzolko29sIeJ2V0oz4Nw8DhHCxIwEzHEtSfhX7hvmjN1PU5DPFRhmkjAnRwMzMoC7QuNGZwW2CfndzGNiHt8RxeH8hpUCRCO4P08DEAOlnJJu5kF/4fp1N4GfMpz3SWV6hiqDi+xCpUyU6eH541I2EEfQo0T9SCtSO4zxjny1E0iVTqEd9rw1ithIGiRm5OlwdF2Yz/5lS4MHgqb+/7VL5s+ncH6gtMeHECfpeGvwgCqdIgPIztU3C+x/4npkJ+KAt/EAZeNzQzDPe6ljkiaLEBB5swK+9zxNOC0fsE1MMMSUGkg0LWQYBOzmA2Z1DA72LeyjHms4a5HmfB7fjTzC1mnU8YnMY5nFZDFUUZb+WNDe1XiS3s50n8seF2VcXwUssKP14RIGLtgJ7r/G3mqZC8DLQTbGdD6TGXQ+Ej4cc1BTO+sc7TJ0QmGCpz94RHCYPJhLsEWu1b+36qLAjq+YZbgP+SDM7eQb9bg1MM+D/J/pvz8AfHb8H1JYhQ9ouopS5CrXj9FU5OlKMRqlWe9BLBro8QxRYDzWAY25IQLTs1DpJmiI/7NuvnSgbwn3MWCdpqrJY4V8gKeDxYViFZUKP8gjy/xG97/xrnlp5fyHL+GBJO+TksvikkN7qVVSXnww208z3868ma81onykeVsyGpe4NtblpkLSSKVeu2hUDOY5zKPQz6ajv6IBFSTElbCUXZ7wiji0wIQ9dbMM2xMHVOPZQwGCciMmdGS3DMA/iQs10+X/7/7U7bBsMezN4cD1oBRoAvO06PKc/gPoz8W74ja6dDdgf9lznnuE0yQEY8/9+dhSckg+/Zpp3pULwuV1isMWCnxJlxyRiVDfb6XOgZOJKzEx2JzDRgWQy20pg4iBoEXc908AzwEQxGhA9mhAjDTr2EMuNroZhuxCqUZdaIkqSyE5oM6xj0CBluTU8p5umU+TAlBCQZ62zRkH8S4n5dTOaDELtgbCITJElr0TQ7AiGRqP87TiSWBHwKtBo8SDOZdVW3magoYSBhmRBVAHDUudu6PH0zHJm633FI9A7+XckkI5bFgODLEDVN2lyfhJkS+7vbl83C2UI43vczcHEsWKugCFxjwkWCPS8YgVXmk4Jl4C1J2+GwkjC4IwV3Ynvti5YEsIsm3S/ZP4qd/lg8ZgtwTSFcHKwyg+WYz5U4LAL8JlI+l2ulcJmn206Bh4R9ujMwV4fHI9X9Edp0IBNsi+SDYkg4Vis6w4LZf4igE+sA+VI0qUuUIi2MMCyc5IBkiUEx8dBmQTIkp5c2F4rPD9838stgW/GlzbmuyUIjkQn5fLBmQuZWt6/+yARNmxUamVBJIMRilR0N66+ZcCaFwvgUIZuSwuAJSfmttUIsi+toKLJTsu+SWIxtvb30C46H3YUCMzSNQxPdIXEA+JQToghwjeeXyk2ffGnEHuDqyY7oHavcKovNrFWzooHwPu+o+iLPd9wXkp9gtiNKxNthZaHseAjQqtkPkaF0OTyxJAiMcu3YSIxWNFoFMTNEucKiy0Fezxy+yxARdvOWUnsHsIivsoCLS21buD1QO8E+xhMlH4MTeQELqeDBFsID/IXN+D+vs4mx2MlnkCNobzY4s6ZjbyX4Y9hdIcRQUT/WLuj5kb/NXAvJFzvPhWgHY9W4XNakR4xMMIzZNVkOwhBrJgAUi6+rul867a9zbRiricVq+/urlSkpDB6WRBWs9QiBh3p72ScpohQFtgn7zjXNUqjicaUNuCYObzPtUcWdccuWRf/BhB963t8ItihwSytXWkoVY/7Ha9l1fQzWh8RO7rFgtzCwL9Irp0oeLTMbOHapuJXnHmppYlEFgSFaAsLgST5MJzrUlzQAACAASURBVN8viQOvo2GtbCZPXgitPNuJoNjODn7OLb6+9ayrSRhsZQ/vw/9jeAEreQMXll6vYxHrWOTbxnU8/CLB8K+3U5u51iJY6UhrYOlgsqMttR0Nwyi8K7wPwApm0A71PVCMDWJkgmmihMG0Jgr8tzPgF2n+oO3asV0rQlgOg0q8SjC3r9Rhax5+LSkeVSu78/BXYf+zMvUJgxNiMLdCpUcvUaAgDLnetMjDFgw5QsUtvVznZzWLBAeJMMAXSm2iH4KXw2xkyCMDDnF/6Xk9JZwnOudXsHDcyP5A29s9z9+NxrtD9n2exFKxzbGAZBmqmNxoOqHJk1wCtijo+bC/zTwXklfbaZELIV+dvgbMEAdExcRk+t35E4mP1uiQ+B4TvhiSyfDNJpxpwIk63OYsg3zfs22vM1CvrGMQLVK2HIg5BaKUoyNkywbPkVhX/hiSYfFUE57Jww7BGrBML1dY3FNj9kUZsnLLssJJ9TKUhwFBqLRQdRlmCIt+yp9FOzDMMMdqWL85zLfYz3dLr9sIr2rjXU5QjC1aOxRDBlOrD3qe9reZs8s+B9mtkBO0TkKzfQ8mI1pYpUjnVkz91NP4UyissfsKwZIb9n4NRiboOpifkO+jIhNqQwmDGpkpqa9wLJ8nCszyOCS26zrH0mn63QyJzj7tiQQtbibDVmE2+kmz7JOwUOIFd23Sjkh4ozAYjQBXJsoJwl8h8XISHRJrwZt22SsM3AntMHCeWbs/wsMSUfNB58APZuF24X1dmCkLg4fSsKVCtMCTWXhE2P+0DKyJwdYsPC30rcpAt/CZnCTMuAcs2C58lgMp2AMsrM935JjPydBgiE/7+qO00OmpltiBziCbfAmMxGRGAK0UWcDl7OPmuq5nD1sDbQsZH4cmhZ/cfkhJhIFLJUfD7GOQ2y7sux4q+K5NWPKbyolNXTK9ELvI7sv5i46SuKL8k5f3zCnc55oGiZAAH01rIZms3xEqFltModDc8BKxZsJEYkoKg3WSqIJaWS7sGwX2Og6JM5w0yTN1nRZgT0+PL2q63TSZHYtRNAyOCb4Kw4ZhC4OJwG8kpufLGkgT+LoJ5GDZKI9I3vdaZ8nB2yVGOshwHR9bM4yQY4QPMMK/l7qjwto8QAfvYS5+oXKITQx7Uiq6z71LBkf5Ns/iAR4G9nGTb//9PEC3Z93ey4Pcymbu8LW9hE/5xMHZxEo+BS6LPYWUXs7LfH3ddQiLCwRLxinYBWS2SJYJVFKjcHLbISVULUyst//XFkPxrY0d13om2FZpeWE8ECMTjA324J/PByMTMmlPX0hkQjZ7LDQyIZs9SC434OtLJDrRtI6KjoaWdYh8/qCvTdc7KxZVaqRmgqYtpVB4U9371cuUFAZiBILI+mQyEDWwI5vlUM7vcHVCIsFAPs9uYZBflMkwZ7zrecZi8K8mfKVJiXiqMQj8pzNAPp2H6yThhuNFUTjfCtN2PhxrxCX/oynCE9FSTrjUFmOIHCN1/nkdxeIomxhgI63Oes0IUZ9IEOni9IAwGC2LQ6opgp3UqNHERt0s9DkaenmSvXxWcC68lnWcTznk64c8u6HzArxrGjoaNkJ+M8SFiIbMqyF2tv3cPNffZ0zBjNqplF8YGMYAmtYRsrVNOm2RSvkzdhYKp4/qOiKR/wq0FYtvG5MUyCJTUhjstyz25v3r1gt0nS5NY0s2y35BAGiO3emgEKkw1zDqit4bUz7bazsehg3Im63mD9bdjoVDVrDo7hS8KFEuuXyt5OSfbaJTnPdQ6xPNi0iQXWKHBicUYGdIAHqrJKdBKa9DDrAcTTHi/FvdK3HAEQX7nDTDbdhLCEO0EqEoXU4AmMtaisLxp44rop+VNL74fm2FkMgYrfSH/BT2HoOUkA+k0F6urNgb9GksJTeaamjLbUfDMLJ3+rMfAiReBlr9gTGK48yUFAZ783keEWb5p2UydGka+3M59goCQAtbkDoepCo4JHrX/iPYFgSwnQ7vC0kFfLvEe8etrrjFgicdAeX++L3IhPVO/oCtlm0teDRXdkb0XVfeToNcjZdKlnZ2Wrbj4ZZc+dwnmqAZtvOhyzJZZkFgk/O+9lRIgdypQ5dk3yPO59mXD46itYirFs1+BLDsUMWRVOkPayQS5VjEnq22ojOX+6SHPEqeA7zB9xG7YiDKSEWrgfgm9nETh3ilckAcB1LBKMiSTUmbBcXTwvdNaH6fAig7HmafhNxuYfuTQJvAqyu5hyH1O39bwll1Sr7VfsjQT7SzHSomDlNSGIwX7YIzYgswZFlEdZ02x1eh1VlyKKbTFF1LxSft/SKJRDm3Z6cwIv0kU87veW5PcMCKYjse3pSGb6fkdRFeZ8KHJGGCdzoDyZN5+IzQv86AFzjC4bpeO9uhG7oo8j1PCuRKltozJUs7t/RCXlgWeU7CzoK427IfAAt1+7HI8wu6z4KHhOteasI5gpl/rgbrJKb/J3vhcCqYQdJLe3MsElE+RbuT6jiKVtF2IF5KEVjCV2nnRHY0ablgmaqmOGGoFn2QEso1G4vKwiCxvuxTUDpejZaKiVZdUVsJqe8Jjd+D4l/tLIdhkQm63lhkgqI6ShhUYaaus0hwSBzM5TgKtBnlzHydsRhHs1kO9/jNzzMyGWbEYvZkX7BURGq1VLhhgqPFzWz4ZY+n/DBjU0K5UXZb8BOJCf+VBb84qIdtWSgIQqIduZiZ7RF7HRJrg0tfbzmHgcvMjPR7itZQGMkWBXLzxSw0ViPPPNPJSopEas5lcArncgrnVt9Q4F5y/JKf+dpeyqWcSfXslNvYw62evAv2dZzA8ymn4FvDAl4c4ruwOZDLenTLClOB0UQfpO+ClGDyL7zZFgf6SjCbmytn1KRvDDogFrLVIxPCks/GYu0Ui/KZTCzWSaFQ2Z9AhmF0kcn4zTmVHA8nOkoYOCyNxZhT8CfA2ZVOBz6ghbEYm+PxQB61zpAUy+OKewmvN8u5DMTLigI/T/lf1yoMvMc6z4TcODlC1sKOFOzzVFlsBouPb9TFTP6VGROgimIzuJNgTgmvMFhBF2/hbOm+P6bAzUIp5u9zBiuZi0UfL+VJX9/VzOFdrKrpuixGnAoVZfSqtp2pi3YCJCeRWb9SZEI221hkQiVHQ8vqI5/310zQ9dnEYpUjcywrGHWjVVkXKhbfVrF/LJmSwmCBrnOaMMtf4NiYtEQi4FPQl8/TJzgrLovFsFIp+oVjL5wIAgDgrWZZMgO+6juXJezJ5o+EgXs0lgGxINPVSdjoOb77N/alGj6fnZbfXwLGN8pBxhzHOjC7gfoMLkWPv0PEtTY0fryZbGBGjWWYFY2RZpCPCDf3o5QHhmR7xTgUChVm7r2SRJvegkpW0BAyaZMbge1PkPBHsk45x8N8/gjxuH8tJpNZWrVmQjr9OClhbahQOK+qOKhEb28wh0kyeXnDx/MyJYVBl6bRJckZcNCyOCAIgHm6zhZJbYVlE0UAAPybCV8WBnk3NfI3U/BPziD0XaftFT22mVyc9Fxuwi2SWf57PCIqAiSEUXoYkIno1zSQL2KnBd8RlgoiwAszZf+CWlhq2laCRpkjJGhanCgXVGqUkXLUyHDL+yHySewoBVswtFQcYkZxWomzhHI8HB+0Cr41Qs0doCwyrEPQ419dwZwPSaf0Q2wNFBaEHzv7aLAtdpzdR6qJgOztkHvQ35Z4RTkzoqI+xJoJoIRBKPsti7uEdf4lpsnZySSFdDoQkbChIJH1DdKq67QKDokjuRwjug6GAY4VI+p6yKQ9njMfdPZzF8Y+2wuvcQRLFPl6+Fccx8BvpOCNZnlsCNM0sln5y0w43+McuFUyMF9owpskg9pzm1Rc6iQTTq9wLPG69+ThmVTlbaox14Dlzjn7LdiTxmetnmXAAs81DVlw2HNfycpOeyhGIsAHfG0H+SRghy+OEGEmNzDTSSTUgU4X3/Jt30HjuRoK3EEPF9S07S6ClXEWoyrjHG8qTSbj9wTbio4wyD4A8dv8fZmLIOakgTBWS+N8xpzcg5D6ib8t8Qr7/8JPIC1MgLO32dkPFePPlBMG48E8iTNin5MdMeo4JLbpOm2axkAkwqAgRjpca8SHayzXPELlga+dsrWgEjen/FaEy0y4tEYHSK9g6PbMrJ+RCIkTRjHz3pGHVcLP1oZE446Hbr2EHs93NlcP1kw4In5+pl8YiIwArSbMStgllt2KimIyJg8tpSITrYzQwgFeyz7BrLOIP9Fe9/JB8IR7eLBmYbADizs9dRgAXsDrWc/zSq/PxKjJ0VDGchbyCf5fQ/sCnK4yIDaV2Jn2Q4b1DKSFKABDh9hzx/66Utf7X5vYwiD5bjvboZf8JnsltVJkgqJxlDCowBJBAPTncmzv7fW1dSUStAJ9wnLErEyGtuOZAtldNv17Z5C9MRVc14faiivdnoI/egbOTxTK4sCURBB8YRTLMHdLwitfWIMJ/lkZuePhoXwwIqEn05xiSgBDaXsJwctEivKYICyvkGCoGheyggtDykdrzOJB1kv7LI7xfHb52t5BB9d6yjobtPAL4Qur1fHQkuQwqLS0MFlI/dX/2qQsDLJ3Q/zr/v7MmyBWf6BLXcQlWYCLmypHJsRiUByUH69SZEIldH02mczSQFs1DGORWGpnQqOEAbBCEACHczmeFgTAkkTCDlMUZv+h1TqON+7k9O3OoPrTCRRBcLLwF6KNwuHPZU/OfzfP12FeE4XZYD7ogBmmf6IZ4JKQTs9mpTKWtWVHDCeYFzE6ZfMfNpfRlFbukWQ99FZaDCtD7GLO9782poBhJCIpr1z8WbCtmYwmMiGXG/b1JRLtaFoLljVAPu9Pjazrdr2Eao6GMmKxNcRia6pvWAdjWTNhWgmDLsOgSxABR/LBzH3zDIMdggVgttGEwavZeCc64rjyWhNeVUW0RLCzH4p81vG7WKHBN3vhTo+oaAM+LlgJWqk+S97hOc9zneta6hm4d42ivDLAzhTs9bw+NdNcYXAsFxQGYUR0WngCgEHSDPMRX/cwUYpEaGGo9LEN0tawOFAiYGJSafzQ5pYdDRshI4/snNAkXlH2KXA53o6HqZRfGBjGMJrWQj4/QDzuL4qUyXRWrZkwFmSzD5LLbfG1JRJnjWnNhEklDPZYwcFjoWCu79I0XiaJKDgo2XeervNoT9AUvnoU1RlFojL7kXstv/Scx10Yc3wV2GDA953+WKxcK8HLEPaAfJUJ1wt1FL6Xso9RaTnjFym4VWIGd0erLzbJMXOHBdcJn/OpJlzmWDN2WXCj0y+7I/c4dSB2e0Tc+oxdSGmBBk9n4W/CcsGmOIiX7763zXHoLMAc57OZqYFW4b3uDnEamJGAYlraFXH8BFpIMMDHfX1hdQ9kHGEzh9nka5vDicx2og4OsFma4GhBjQWHdkscD9d4fAsUE5NKEQixZ0OxwtdvbYe8UH1b7wZtWXOuLYxKIkBbCYWfju35Jyu53BZSqSd8bYnEWWN6zkklDG6RDOJXCSLgyWwwf+aaWIyn02n2CMsARpMiEtp0nVmimMjlGAQ7GsHdzk1xvEZ4H580y+mPrxAGuPc6fRtCLBb/7LEMfK/CcsF3Je/1KUlKZJFTnFoFd1U49nPM5mRmBP+s/AUZuCcOv+6xjy+e48yMLQxqxc0gKRuXZ2pwVBCPRy2YUeX40ZBaDg72YkH1D2chf6FN4nS4k5s4xHeE1s+XhMF+IbmPSxe1mS3v5Xc8xZ98V2gQZ5ETlfAp3h/Y531OdAVAks8E+nt5T03n3sI+nsJvj1/NQlYwP2QPPxZHAm0a1dd7pzvpOyH1kL+t8Bb7f+0EKBynVcdKwiHz9fA+RfOZVMKgFh6W5CRY06ScBF2JhM+n4HA6TV/aP2Ock0jQrmkckWRHbBuL3AhXOtcjWgxEZE6GT9VQAOncmP1wnQ9l59ANOMfjwf+j3uB2Q9R2t7nCYI0J62KwsYZ9aqVSbQSAfWnoF34Vl1cRj60xOCbcc0MpaB/9d92HRR/f9K3SiCLDfkuTcynhKfbwefyB7e/kWTULg5vYwXfwJwv4BWtL4kCjnS2EZ6TrZSDQlvQk7MgOBbqJee5hcwo4GsrQwqtuEzsXimPsaChDPxF6LvS3mf8CyWtVZMJYMOWEQTNYHIsx22NN6M/n2RuPM+hZFphpGMwwDA4LQuSYYdB+PKMRKnGHYE15uEJlwkbZbsEDqeDsfiwzzM7XbZ8CLwdysL/C1OcJSTTFkjrchmdloK2x7zlCkVYam5ZFnXRG5ddBUbCAV9GpEhxV5aMMB9pKCYhGIC4IAzMK3gDWSuWVs7shJxg0Eosr+x1MBcba0VCGptkOiDnPz1kuZ8/hqkUmFApy5yhd7yCT6Qy0TRemvTBYKYlI2CksR7Rgj2v93qUI0/QVURpzqklgMRTx9Sas1e2yy/c7fzE/l/gTvFIyGMpm1edKtrumzkx+p3qOsUr47NYIx19Rx2frOhn+xTPY1+IQORpmNZ7cqZ33MnuMsiACdPGsMTu2ojZyR4KZDxOLa98/8vNgW/Hl9v/WHkgLWRONEyB2anCfiUbk/GBb8Q+jP24uByl/IFnJuFspMgEgnw8KRNfJ0BuZ4D4fbwfEROKsgE+BptVxMzXApBIG2igCQecbBvMFERAF5goDbn8ux3bBCtDdRGdEoFR2uYRXYNwonEvXy86K10mcFcEuvSxD0+zSyjc7gqBN6A/+Pdhll8+XDHr1igARNzLvBYlyNMIDWdgsWC3OTsBiz0x8peezcgXLMufz2puDe5z9RYvEkHPOZWJoZMLOYXC/RP0ckVg6ABaFmOqLFoxUXo5pRWM2D1TcplEOsrli/z62BtrmC6b1bk5q6jUpxoeU4A5jUrswMNZARnBBGWvHw1rJ3hZsG8vsh/n8sLSY0mgiE7LZrcTjTwn7ra5aaCmbfYxcbruvLZFYP+YiQMakEgYXhdXR9LAuZBBfGfMPdocti4cEZ8Yu05RmHm6EduE6irkcRdcS4QiBiK6Xg207hYHqJ5myQ+K5gtn77WZZ7t6WhW8L/gVfzNjWglr4tSTjn0wYNIOHnBTOrrVgcw7yKf/MfqXhFwYXSL7zfc6v4r5cuV6CW1JaRFxO0CqEcBaBmWb5eMdScDhNaRm7w4C53jTJaShWXxJoRWMYiyHKImKYPK3otFTJcjiHazgspEqew1oAclwVWFrw8nveHmi7nJt8r9dxDus4J7DdTrbzJ27nNE90Qw9rOYPn+Lar5Gj4J4K53M/htNLz1SzknYJ1Y7WTCGkz/h9kgJX4TbsbmBN6bkU4sVEaOq2g3kSrPObVdlwL4u/wt5lXTa+0yKmUX+wbxjK00dTYbpBJJQxqCVdcEwsOavf39gYiEk5qghVgTixGuxDZcDSd5qiw3YxYzLb0i46RmQyRZvkjiJPaZvo5XC0ZemYKrz9YgOXOOV/pfLZP5mwx4N398RQ8Luxbr8n/Nol/wCyCeQbqPe4Q0JWwIxSOWbArBQPe+8YsC4MRC4Yl9RraCxAJfvZD5BngMqH1xxWFwSw0ZrMBuCZ0GzH0cS0fodMRDqPlUe4LtInCIIxt7OZb/NHX9nxW+YTBCuaHOho+wQE+ij9E699Zy4WO78Rt7OQdPOPr/wIn1ByVYDHMvwvmIUO4YTLCr6M+PSsx+7C2Qo9w25sXQvKNTv+WwC5NqbCoaZD5BuQEZ2TLau5PncJmUgmDXfk89wiD69mZDKc4YuDJbDYQlRBmQaiHGbpOtyAAdvX0sFvYblEySX8qFfB1njGelRrbgJQgQFqdR6ksswnPdqYNn6sSrlgvyzT7AfZAGZw0TgxOL4LVK6mRUCPDkkyIUShGVgU2jdScGSnIIi5iEeFTpiIRnzhYwYUNn2s6kWYw4Hz4N4/JSYvajzAizwTbvFkPZZUVvY6HU63kskv+SYgLa/2ZJMQkvgWNkPpv/2tjgy0MhIAxQAmG0TCphMF4MMcwmOMRE325HANCdsSZuk4UGBDTI9ew1HFc+EQGThSWFlZq8qyHU4llZuXIBBm70nYJ5gle7+AQm2nD725dT+IkxfHDOgQ9gjHGnA9JT8kH19FQhrYQCo3XpDquNMPRUIamQURicS/uqRyZoOstZDLtgTb7/+kbmTCthUGX4MwYBWYLzoiDuRy7BSvEyiaWaq6Jt4vVBp3ZvmXBvTn/MkKYccKbx2CLVRYF1zoiaE0TAn9TEXkCodNNWGvASh2+I1kGWGPCFmcAvzsOdzvtF3isPVHgfsG6EaHyHawlgj4FczXoc977LCc5kddqcMTxg5gbshA7aIWHKYZ89iOMToAdweKIYFYfJpi/QHy9jBeO6ryKiUulZefs/RAXIpMzMYidbj+3tkNeMPnrKyaGA2LmC/7XenNWxSpEJtgiwBuZ4D7XtA40rQPL8tuALWugogNiLNZNsVi/00UsdjKFwqLqG44D01YYdOo6Kzz+CEcsi3xPD3mPFWCuaTKjSeeL6DoIyxoRV4TEYnBQGFUsy58eGexIBNc+9jnHXnedZ1ALM32+N25XWXyHY9H4WRpuEWbS78uMndPhAym4oGBHI/xdBqyc7Wvg8njK9hEQ+bNHCDw/ZEmo0rpvWAXFHWk47HFaFI9xNFUe5L1CZygFe1OwwBGGohCImsB7A6cb4BSnNkKUVn7KAPdyjM/Qz2sYdkwTc/kubQTF2Qw0tnMTh4WyyEv4vPy9AZu4k1087Htbp/Ay5jsVCh/hjzzDo759TueSUrZD+/jLuBrBE8zDXyX+B2dxhu/1NTzf97qHJaHHE1nLPC5jQc3bK2on/QdICYEyhbeWn2f/DDnBDygRB825PcwL/X1Gk8IkNe34mP8rRSZY1gA9Pf4KnabZQTK5GMvqo6fnSaFvDsnkqorns6z9pNP+D9gwFhGLrWnY0dCydgTaRlNLYVIJg8W6zsoGQhZPTyZ9Zv5DlsWDQkRCC9AMI1GHxKeh6DpNeqwRETca4WRhBn2LE42Qz8NrhBny9zPlv5xvjGPe0m8LI+B3e+HPDZz/PkfoPFaDmKmFKOU72E1Gs8SEs5u4pOOmUfZyJA0z6nPtjlCkhQ/RQYxjwDFJCMV+bqCfr/jaTuD2iscMYwe/8b1ezLqSMAAolMwy7nlO8QkDsMWBjO3s5GZu9bWdwak+YbCcRSxHPvvZyj7egX9KG+cE3oydUm8zB/lH/LV/X8nCkuMhwEUs4f4KQiMriWqIeaIaDFr4eaDc8gRfPxonco9D6i/+toTzU6R1lx0NZehrwHzp2FxXLAaZ6/wOiLmN/vnSZCGV2ul7bZqMqvpiPr+VePxXvrZM5iXEYmc2dLxJJQwWalrFkMU1sVgg/fFBy8ISEhY1YyV2sbCcMJjP0y+cp03XaQEGBRESMU3amuWPIL6Z15p2muQrBMFxQwp+4gzIMxjbTIRh3CpxdJyMnt7HUjBDbsGIMMIQWYZ4WWnNv0iEIVqBTzDAJwCYSSv9o7BHHeD+6htNUywGuJoDvrZ/Y4Yva2FMGttqkx0OZj3MtIJjdSZ7KJgOOSE4Dk7HkstgRyCkfiE0/gKKTXI+zG2E1H/52xJXNufYijKTShjssSx2CY6Ai3W9FLL4hKSAUhuQF3wEFtdhdZhpGMz0WAGO5nJE8VuROzSNo+l0wBmxbTx8EcRJzrdDkvQcb+4OScI0Wkbwfwa7UvCUAatrXBYZwf4yO02Y41gBBnL2ssFE/BwdDpBmwntITmFSQuiR0Q6aRyxULbm8Prw/uwlyfus1iVNAq62ExITG2gw9r/a3ma+GZDDlRt0U95RXX12y2XLKF0XtTCph8GA6zWZh8H2JM/jut6xAqOJS0+SEOtIWz5U4I84UnBFbgR1iYqRmZ0YcLdenqJipaRh4eeNZJDnJU1HwHuf72JyHdzhCaKuQDbCQsy0b3qg9t6BR3PnsTvf89T4i/HXvzNmPE5xzPuMkRTojYx/jUcESsTtnC4OtQaFId8wRAML7jwB7hePMMe3PcShk2aRFOEaLfa9F0YnyUYb5iHy/OpnLBuayofT6APdxREhUpJhapIQlY2Nx7cIgdjoUTw/vn8iZD6Gc6NVLrUsF8SuCbcW9jUcmgO1T4MUwpn5kwqQSBmPJXNNkrWDefzQSoSAIkeXjJQJ03fYpENtcfusMwi+RePmPAK82bafF+3NwU6rcHgEGgfWOYLrAMyDfJRlIz/P0f9txePQ65J1t2uLgB/HyDLsFOMsZNBNJu/3XkogC8AuC3woB0ABGAjaG7LsjB+skmQx3p+A+yg6GXo4Kg/myBMzWYF+WQAKK/hTML0A/9vKBlxYd2pxrL5Z/yYrFLBGgJWIQcYRBEYMhIblROynmC/UShoEjgpmij00s4eLS663czmAVU8aJvICFhNuyT+P5LGFVxWNU43L8Lt4rBP8ExcQldlbl/kS87FPgoo3T12tZ0PNif5t5DSTfPfpj9/ZCSqgiXngSNK3FcTT057WwrGE0zXY0lKFpsygWK5h+QtC0LgqF8+rerxK63o1pnlZ9wxqZlsKgyzB4tscX4Yhl8Uw6zabe8sA0t4kFkiKiJcI9diwG/RWiEVxc7xrLgrUep4Ioco/JKPC9FPyI4Dfs7v7RuP086zn/FyQ+AOcVYZsFt6bhbk/NBXFsaqNs2Y4AG51tEyG+FEWC/hFPSwZyo0IK420puTAA2JOSfzYHnXO0Oud/yvNa9tdwNA+zE/ZjKA+DTm2G4bz9aNUhUhZn7lsaaWlzXn+cqCTaQEYXMZ7xmHqKRNjO2xjBXlSdxYlYfEDqctjDJ+j2JDfyOhrKEB0Na+WvbOQn/NrX9kpezDLHEfBPPMTjQo2GF3Imyyn/uHYznxt5Veg5nmQ/H+ZEX9sFngyRFkfEXQIZD7/NPN9rvSmuxdODaiIgexfkhMRliZc2Jy1yNYwNkPFnCG+K46FlDdPT0+9rM80WksmZVSMT0mm/I6FhzCYWs+/3V5EL6wAAIABJREFUbDaYPzoW60bTGncqsaxdgTZNW0oyKWZWbZwpLwy6dB1dmOUfzOV8P12Hcjn6xGRFdUY/tBkGbcJ5Wp07NuBomM1CmzAq3upEI6TTYArXsjHEV0G2xBzBnnqGTSqjIftV4+4Qc7r3vN5zygb+RthZuUjRuODmLRjOw4jzObh5r2dk5DUaPLSg0Sk4w1XDm6xoJ28DYCZvIOpk6/M6Nq7nR3Ude6z5M/4CMifR7RMGldjMQf4D/3f+Chb6hMGlBO+JjZ6IiBcQDN0qePbvDSQth6THETTWAsUKfyOxuVCYxjoj9wikfu9vS3giEYp+5/imouvQc66/zXw7JK8du3NWIyWkubQjDBZjWYcCxZRMc37VYkqVsKxd9PT4/95Ncy3J5ItD9miMSSUMlhkGy4TB11srQUx/vFDX6dQ0Oj3bHLIsNsfjvp/psIm3jA5dZ4ZENMyUeLj0R4Ij48yxTo9c72B8R9a/nNBMokAua/sYiIjXucsKphiuhS4NznWE05Np21Lg5ibwWgZliZe8jFTpn2B4QxXnesL4FNX5mKSsaL0xQloFH57ep4MpkQtryg6J2S2Q2+/vT2igOdGU+kIwGw9Bn9BoKyHzCch5g2qKtlOi1oTbOHPj6I+hmGTC4JQK7qVdmkaXYFMqZLP8n+AouKQOS8BsybYdmsYSjwVg0LLY39OD17jTZpp0TdT0yCIfj8MFYyRWWoBbnOUJd9Btpf4BeIXzPWxLlY/lPUaX871HPY8I/tCRLtOe2feHWD5GsCsrDo4iP0QERqL2hbU4iRWG+QCH+Lhvs3Z+QgfKVXq6ktsPqb3+toTnpyv9KKT81XcpnFJ+3puBlGBELFwK2sRImleV3P2QEoKUEpeXn5tCzTBjAzWj67bRVURFJtTHpBIGd/QGndMucAbgn0lm52eM0lFw5WQZ3MMYBBImXO6swz+Rh4/FgwPznVn4vKTwUgvw95Fg9qdh4LkmvMizvr8lDzdVKMjkDtIvytipkWtlsQ6nOn/Veyv4GwCsSdiPp9KwTxjguwxYoAPOMXalg86JXQloqXIOGRFHuERAlvmwHpbwZQCOsDFQbvkg36VFWLcYmlx/wooJQPavEL/Z35a5vOyUaG0L7jNezofu3C51nb+98JvafQlSn/K/Nt9nC4NkMlhoybed6V8/MozpGw48qX5VxFBFoCmFizpNk1WeO6Yvn2dHPI5XlM82DBaNh+w0DLhBEDTuX4SmwROeabBlwU1pO3cBlGfS3oH/e07Z49M9zpRi7P9DElO/l/NNeJnkL2q5Bvdk4UdxeYbAYYJhk7+MwzoTLne+t10W3NAj39/lh543JDPhrjbt/AUurqjxYsXBOws7tQCrkrA7C/056EvB5p7y/gsyMF/4vlv1YGKjVh2iMUbqSHrQzxUcooV55Ghz1r6f4XO+bVqAJZQzuWzjXYxInEPWcwMA+9lCHn9mmUWsYzXlzDKPCtkOAU6hvGC7i2d4RqjrcAIai7HLBm5nBytYztt4Q6l/GWWb9zZ20cNSrqLsca1Rv038Q4Kz5hr8jlqvYwqUIZzA5AsQ/46/LXMVxM6xnyde6vcpgPFxPGwG6TSk3udvKzxlRyYkk2IteRtN66BYlDvzatosCoXwjIWZjD86SNc7Q7asHdP0F5AwjCbUtRaYVMKgWawSaxYQrEMUBY54hYhpNk8YxGIwWEc0QjYLVwuz8W87zorvSsL/OtfZQnBwbQFuTsHNTp/MUe63qerm/eUeub7NKv9fSwGnRlltwiJPCWfAV1CwkWUJL30W7BQ+V/fz689JhIFmP8aAfr4SKKEM/8xCrmCYCIO0SqsnzvH4F+zkl4F+rzC4h68H+r3C4B6y5PGLxNd4Vt//wN08KNTR/lf+qSQOLHbwXe709b+eF/A87JCurezl3fzO138x3bzJIyR+JhSLAn9Ewn9K+t9F+YfSYoBvBSISZnj6h/mZ8Eegq0RRdVFNBFib7fLLXvQ1zfEh0DTI/K8/LTLYP5+jjU6oFpmQTvvTbBtGB7FYJ5o2i2zWHymQzx8hFluM1uRa2pq2uOmOhjKmnTDoMgy6PQP8Ycvi0Z4evNazZtVNCDgaZrN2MK2XRMK+o9Np+IRgEXmwyZkTWwgO3o0MrFYervcMqO7vrvfY7nHXmfBwDev2RcrOgmtNuKQBS5BrLRkBFjnm/fkGHMnBgRp9B4qex3Gmn6/Rzwba0UsxCF6mYpnln7En0Oap78P3JDUQ3uV5fgP7+bIQdfAHT82HPMO8An/BnJ/SXqqTUC0dsnUM0of8/Ua7HalQej0bMv7oSV8mRGMeZOYJ/Z6JpLEYMkIQx2TKeph/EuKf8LdlPlAWBonLwaiQgKkWUkINMWPD2NdLSAnpLu3oA7CsPuLxHULfnFLIYqNEIt8LtBWLr626X2/vjwNt9YYyTmlh0BOL0eMZnA9ZFoV0mody5VnRaLPetmkaiwUBcCybpV8QAO2JhP3TIy6HGMbY3tEj2Il7WpGb4cdysvTsBrIrtmGXYPZWjZxBbXeqdzlit7P//Ez9IZqt2NkOvZOAzgR01Pc9RZ0FhjbgAL0M8pm69vcSYSQgA4bVTPe4IKZDNqHkSmr1gTBGYM4B7xgRF2bTAEXPbDr+oKTfk9YhGa8/imKiERfegPkaSIYX86wZTYPMNE8Kmko9Emib0sLgxRVqD1wqCQMsCKb5/bkcB4WBuZ5QRZFjlsUxoXZDu64znMsxLAqASl4vzcJdA/FSy6RSDBN89xiWYB5LxJl+oxNqV2Ac9XyHnc39/opEOOaJx29hhCHJQH+YjbSHvJHloxAaiqlL788h5a+qTeEfQXOKUcbOgmKF7Id6D5jnjNnlVSX57mAkQn5TffOnuDAOZn5sz+4NA8xPyfdRlJlUwmBhyJ2xT5JcOwo8JtROqFUEzDZNVtQwkB/L5zksnGNOJjP+87h/9HjF/yDEZH6FCbdI+l5mwitGOegNIrdGPBSSffDyJHxeMti9tgD3p4MZEI2MXf9gq9B+RgYWOY5qCw14LO4XOVHgQA5WJWB5AvrycMixFm1PU6qGNdcshzHWLSYs51RPe9qC9+k8knjneTtYxmFeU3o9AxjmPfTxNd9+h/kmg3wXmcljrmdtvYsVnCvsK3I2b6rYvxKdlYLjn+t4CLCmShpljaU8j8ZLxyomBtpySF51/M5vWRB/i7/NfBPELpZvXw+xmD+zvELOpBIGYeGKe/N5HhIG6BPqyFfQKWzbaRjMGu8C34YBPw6JRojFwJIseruC6FWecMQf1HneCPAzJ/D30gSscM55XS/cJgzEvQXo1kDTgwPoEPAcEx7wDLD1rtPfk5YLiXucqIeVJlzksUHe4rmIFuTLBftS5bBEWbRCO7ZloN41pRELRvJQ9Nx3bv6EaAFXHBwlSz/+yi4zkWdhWc67OSps+wQv8SUz8uImNnqaP/A3Pu3rO5X3sspxPNzDVh4S0hgv41RO9jge/orgeuZLKK9nbmcHEWCtRxx0011yPNzGLix2cBJlzzSNpYGMh5/jhb7X3SwoPd/MAT5YJSLhp5wUuE4vG5jBN4Vy1prnptJp4UNqCWZUWFuhRzD7m3FIvtl+rq+xfQq86E3Ui7EYFP7U+P7pNKSEqOLC03ZkQrE4R7qPpnVQKIT7DGQy/ugbXZ8dsuXkYFIJgy1jEK44zzQ5yXOMPsviyZ4ednu2mWOarGpGToNYDMKWQ2QRD9ksbBRCCa9MlOsmvEgooNQCyCNuIJ2CT2fKA/pDOfhFCn7p+UwvrdFysFyz8xi4lRVdx0HdgIc82zXLga/R43h9C9zER7JjeZcgZpu2ODlaxVlxJA+DIbkfRsEMj7WhD4siESdWoXzhI0SZ57E21MIWbg+0eYXBJv5PsldZGNzJXTzEw77et/Dm0nOLHXyPO4S9LygJg63s5Vp+6+u/iG7exAtKr9/APYEr+K1HSHyBTVwvOB/+lJNLz7McYKPgeHilICzyDGMIX1JMMHdlhF/FmPCdZgRHc10Qs8IYgThGmAuY0mgroefqYHvRM+8xhdu3XmfE9A2Q+k9/W+HPzYpM6PO12ZEJs9C0DixrQNh+AE2bhabNwrL6hL4+tEr1t6tQi6OhjELhnxo+p8ukEgajZYFpogtLBFvTaZ7x+CIcyVWJ6a+B9kQi4FMQBYrCkkfEDUU8TRjgf5YpC4X/FAaoDQ04K7qz4Qdy8HNPIaRmT5w25YID7wi1z8YjwOkJ+7EnD3+pkDCpFlzB4vW9CHrwBUM4OxNBn4I6HQ+bTSuuq3yEPtpZ6/PFV7iIEQkbOFqyGFiSiIQP0eLLQSlGJIC/bkL6UND50Fs3IX8k6HyYWSpEJVSpn1O4sHL/ZEdbaQsBb1rk3P2gn9ickEZdB/MD1berl0rFlAB6eoJepW71xUjkLkmfHabb2xsUxMnk2TVczy7yeX+KTF1fhqaNPp/2lBYGJ1fJV3A4n+dQKoU3+qgeZ8R2XWeOcI52XadFMnAPSzIztjS7bsLVJrzbsWzcnoX3CWbum1JyX4BmsTE1OrFhpewH2IN1PXenW+tgiWnXS/C210o7dkrkbZ79V49N3GI71zIgJDU6hkW7xD9BMXWwDgajEswFEPMMiD23Bfcrepzpsg9DTshOmNhQTomceB4YE/w2yt0Pqev9bd60yJmv+vt0f7HNimiaPS8T/MKbkutgLEildgbaajFQp9N/JZXy5/UoFF7dlGuaEsJgga6zVPATWGgY9HjM8wcti/uEugktjG6cbNc02oU77UAkQr+w3byxLpxUC26p5EYKFXlxkxt5ze+VxMAxYIPz3awxwHC+k9cWbJ+CTZ71f/d4jUQTFLH9HE5M+HMWuFaDeSYcCVkemO1c32jqJABghl67N+dAH1cyQgvDwt13kBuYw5UUgX42cRghiwvUlWFRMTXJbYPU0/62hMeLP/0nSVSCx7SfvQfiQkhf5lUQ80xSj3da5PwmiAu+spmv1+6AmE5Dyl+ihIKzzGkYYH46uI+izKQSBpeErM/P1zSe55FYByyLJ9Jp7m1ivgKRPb29DAg+D4sqhFOOCW8UHCw3eNIer9XhU44140Px+p0B35i0HyL/LBn5zjHh3hAHvldm4DmOGNhp2Q+X5yRAM+COuD/BUbUva59HnNTKygQ8Khn4Z5uwwFk22CHpP+a53naPCIwALcLn35KASHmbYSza0GnjPo6QZojKDrH9fIn9fI0RWkpZECOO6prNNc7/G1jMRb79VnF+ydFQxkK6uaTKuf++So2HNaxmDf70rt50yBpLeS0X+PrFdMgX4U+Zd5rQ/3ImSRWgKY61DXo+7G8zz4WkIy60bsj82/hfV7NQkQnVmVTCQBauuCmbZZfgF7DUMNglDNq1Wgf+P3vvHebIVaZ9/7p7Znpy7pme0NWTyja2x+NxGQecxi4ZDJgPg40RS3qJiwmLFxuJ+C3LkqqBhWWXtKRdwqI1aVnwS5JsYxsb28g5YXnGo+rJ48k56v2jpFad5xyppG51mtE9l67pOvWoqqQq1bnrnOe+n8mex6kjpXiS68KfK5ANyypPG4TRG+rIlhavfpPjYSV8s6j8MJUpfmk/ZI2/iEFXPtjWvSn4q+h8x2G2aTZhXpH4/LE48lPPtMWD3XBOHv4q8jn2JuG5JEyu0HFuD8VP8qAgjn8M5eMvOIBFAZ+j5DjEK/vCjmluBAXGcpQjVX6CLRT6cgt28gOO0cZ4VIH373mJ9r4X87u+v//K3WwWNsZn8nJmFjvprWzkL6jTYQs5heWc37f8U3THmOu4ru/vjWyll03K57PoZF5IkbCWrZzBHGUbF4UUBr3s4pVC6tglrI1vZBnVPHBcpnGnUCRI/I+4C0g7ZJl4KOGMI4JinRyIfVlvK5TzSMl/D3LCvbpRpZUBEjcbvA5ytU8ViMFjAAqFkjKhso2x56kTzY7THlpnVjSMRowaYvDHnh6tiFLJ8GizNC2qQ6q4MJQjsDebZarjsC+UJDipQZNSLZWOyXVhr6FugvRmKB2H78MXhWxzpQNXFJ/Kf5aCH4nOy6ScOUK5tkL4jp4JzfHXSwzCZe7HoD7535uCp8RxVRoZKI1uhL+W7hrP6dSI8yWLTJUslBuEAj5HipK7Uhd0nFaOon6cNo7RAlWJQSOwmSdZLxQJZ6JWwFltUAOEicETitQkQJgY+GziR2Ifr2dVHzFYz3a+JmowXM5CLgopCn7Jan6laIHg25zfRw5uZxMfZL2y/vMs4PKi3bHPQS5DTcR6D+O5WbFDPkpWuUhVYmBSBNviGrXbdRWCFeIabgcUIpxw00K6Zwt7ZK+TUY/U/0BSOPPmv1/+21kBaaFEqIc0+D7EhLLBu7kx5ZV9/xiplJph6jhtuG450dCERGJRxXWlREMT8vnK66rBcRaSTqsFlCxrYDbMJYwaYtAIzBSd83THYV7oStoCbIrFCCcVd6bTzGnA1dZqGoWQRZMguLJzOXidyMj/cUip8A3Rwb7LKxOD/qDAwIoR/SV0PLLj7Q9K0sJSh90t/AsGCnl8pf2EEw2398DhgeYcRKOUe1CgpZk/MMjIcoxPCWIQprq54xBTV5MGrFCdhG6Vu+C1Q2JWebnnOUjuVWPyS8uqhNwuyO5Q10ti4ETc2+Mr1ZwCKCceAjjdkBZPxJY6WDMiEBPCmvQ/g3u5ObZeOA6kf6G21fOMl0yqF0KpLgJAS8s6Lb5UfbGnZ622rkQYfH8PuZwqt7XtqVhWdZmK7+v1QyxrFq67vOr7BoKThhjM9DzODHXOe32f9akUf21wHoIp0fCYgQC0uS683CDHOzhEiYolTf8xBqYkMHkD1LO94wRFk8Lwa+yQw/vtDG2jw4Ptg9+p14NWjmm1DYKRhDF9fxeACdzQ97H28J2+9c26CCcOktvVZWdGuYiSvwNij6rrvU5wQ3Pi3XqNHArhRL0CZMUMpD0PSio29zzIRzydexepy85p1eMbDfcKSH9TNNZxa3RdvV5dNjtg25tIJCUrpLzPVMonmVRZYT4fbeCQSj1OMtkr3vdSLGtWhXcEyGQeJBb7v0pbOv0yXPecyH2ekMRgluNwmkgEXJtK0RvqoHdns2pZZYI+rlaVwqxEQrvKjvo+R8UUQBtwXLgytoTp51Dg1R6cVZyf/6cK3gAfSpddD6vBNCJwlPKVZCrtvCEHTxpKO5/qBfHzHVhR/D6e9/WTMM9Rl+cKIrE9Wd7/g8W7galuRDVMEvsY51DTbHJrUYnQkoTWLGD2wWjjoxyjcip0a3HYYhav6TM52sQ5rOeDNRx8E02oSD6lLjvdZWLgb4RuYQ7knQOJ1wV/W/PBOVVdLzvldAMKHkUhZvDpKRgKUFVC8pN6W+mWXcds80mJUU8MlrkuswxqgGmhcaPdvs/OZJKdofUDKZ5kwlHfZ4/IaBnjeUweiuJJYawwdGivikNX8fv4TMT7v1RFWbHAgo/n4VOGzJ0SVnrwhhBh2uzDv3frnfTpHlwYh7mCjMy2wI2g9ReK9WuLdRLCODUNswaQejzZBUzkrdKxJYuv1j4lAQR6qbE4jMGmDYfDPMhhSo8yBabxHiZzPWMN/gWdXE4nf6l6mOFEQxPO5OVaTsHMkDqgg3m8lo9U3ca7uKHqeotOXs8qrS2Md6MSr0XCKnk51Z9+mhhaxL6jtxVepC5nVSNM7MVgFae8neWQFiPdjUo8LCH9I7H/On7uiYSexjVSfQ6GA6OGGFxmeEIvYYY4m781mAlVcgqWmFwDlVxn2H5nI6WKtg03VzgOy4JMlX1d7gYviV5fbyuhlcAiGdSn+kuK29ngw29T+noTsiGTo9eFzlc4wa+NQDq4yClvrxX4mSAciz14cWgbPzXs/LoK44vPxmANsCwNVvFz7PPLBEUSlc0xmF2ArT1wSExDdOTLzofHfTgkjrPVg/aSaXGgJDjGGI7z8aJfAbTyCcYR5wAPcSy088N8ni18mXHcSAc397Wv5p/Zg+oAY/NLJhUJhM8f2Y5an3cJr2Qq5bvv3fy79rVcHCqk9Dh/Zh3PKOsdYnRQFqw/aBgBOSfUyW9kK75I+pOKBCiwSEgRwzUS1rGLpUxnaci+eKFQJAQUqXJWnsV4noso8hSnHUnTrdAUjd2K0GfoyYciKR1nMA3DRjCyT0BScNL41eW/7aVBAqKEu6q83ntj//dvWUEqVliQls0Gxka1KxP0e0eh0IJltZHP99/K+ETAqCEGQ4EpnseSoZQq3ipvQ0VYlpkEGapI9v0KbjfUVbiu+Cvp9eFNxc7MJA1sBX6ThN+E1r/YKxMDgD8ly7FyG+eFiidB4GkAKjEIo3QzTYee8v/PEHtADDShJMxRCklMjOl4KAHjOP/AcfHUPFBsQ73zzmS5QgzWc5vhXaprzBruU5YXcopCDG7ll9oWwsTAZxP/hWrV9zdcrhCDJL/VtvHDUK2HX/Isv0a1mv0WF/aRg1728mpUx57XM5UbQ3LHL7CJrwlrsTuYh1WUL2Y4pCkS4mLMMGdQp1jitMaFks0SxCCxuPKYEgQOh/lpVQKA9Fnqsj1K7R2SQuXqUSYGlqXLDfu1jy+oy04/HONNsKw2MhlVmZDLHcV12/sSDU3I5ytXi3Kc6aTTaqKhZVWWRpbf1znkUx8nLTGY7nksHqJh/lZhm9xaGvOqVDhJwnUDUnCZeFJ9jwc3F29DD2Xh++JJ9zrD5ztS/P/VHvy+gQl6A1UiDAZagJ3Z8ohBEyc1pCLB4agyYiAVCaDWScgdgtgedX16CrjFe7u/H7qFdt+bHJCFEjK9uiohvqjGD1BE/tXV17srIR/hUuiJ/DNnqTluMBEz5CkUQvUT0t8a2PbzT0bHVILvHyMWU4mB5wWSRYCenq3aexKJjqrFlFx3Ab6/R6zbE0kOXPdUXFcmfUTDdc+hUIhONDThpCEGS0TnPM22mdzgCaUxgtaNdRxaLEuvneD7OgGw7YDqXm9IDtw2jJbKf8rA06GRiOPAIeAiD94aejb6YBWS8fI0rM3qPgZhZFP9r6K4yIUZeXguVVYjlJIktydhd5EgDWZifz3Fopo4aZHdoasSwsQg9zzEHlHXp1eANaO83P0zfbuFcqFLMg/pqoT4heW/rXkQX1X9ONNvq75+KGDbA6t3YFm6MgEao0xIykpahNUHWzR1Qj6/BMuaWFGZYFlTyGTWEIupbCadPh3XrV6zOpN5jGxWlVDG4+cOyNPgpCEGXaGn872+z+MiUXC653HaAK6YMZbFFPH+476vSRVbbJvWXA5eKgjAb9IjM/Pl6SzcXcHuuBbMtYKXn62+jdU1mh9VwjQLZjqwg4AQhN//cDfM9GBxaAQlPGw8T0zpyNGPPSloiauWyBKHA0eCwriWqsc+mes5yEp28+bQoTQZRRONRVI8LWuqBDEE750DiZBhkL0IcmvVGH9DuV5C/Go1pwDKiYeNQi4HMUFQ0t+p04/gE3rbiahMkMWUHGdhkxhIXCW8BB7t6eFRE3XsJxaK7R/xfQ4IAjDGtiGV4riQRI4d6noKJbxa/AqWO7DCkONQ6hQXh1J8C6gd6TvSsEikAH8g4nNdkwheAF8QPa/pSf7iNJwppgAqJRqWYLmwusr6SRasiNhGRwL2OLA7RNwOJeGQExCDVgsmFOBoBo7qozstrOVg39x3eV/jikl+rViMxWIKuklKGEFZ5cqllS0uYzrVnySuFNUbJc7kAuZGVHN8ecjW2XwcnfyNqN0gFQmrqN5jNBUJIw+p30LyLrUt/2kR8yt12TkD3GLJDqsL8j8cvOODYIY1X120UxWJREtTmVABJxwx2GVI0Nue1IewqzuqV8Yhw/aP53LsF14FE9Ppxn+576lSNOm6uJ5TULrCuyx43wDHzxR7YhvmW7DRB0/kPZxrkCuuF+OB8ok8aoj/TgOpuzS0j3wGtpn9A/qwKwniMLATcMCHAzk4GHp/pRO3XxyHwdPhGCnjW1uLHfA2vqCtmxVSI+zHZ7OoTTBZFE7q5Q52CEXCIq5REg9z6PXfbcrWq1vZwGZUMjeXbqFI0O+653Bu398biwmDYSIwT8gQ17ONl3Km0rZAEIFLi2WgKqGLyTwQ2q8JN9MZ+hZ1uLTzeMQvMh1xHdrt4B2uHnMyISlySj3KxAAgZTBiSry//HfaUG+hXkhlAtSrTNAzTguFYAQvnVaTU237hOsuK2JUf9Idhk56TSrFFkEE2mnc9O8WQ/WN2ekK6oL+4JYqSoWbq3Tupl9Crw8/Fx3VCgdWFZ/E78zA58VT7wfTcKkL3+6BOwShaqP+JMO7U/BEDbUbqmG9KTdBfBfPF2NKN3fTCd8tt5OA7Sm9HHM7+i/jUBbaDQWUBI7zsQo7L26GLxla1S5tL/+hRYSJwQ4eYxuq3+sirgmtX88j/Iuyfh4xhRg8yB94jj8rMdfy8b6/N7OJ3wjVwws4SyEGPhtJCeVDnCs4n3Ja/YdQndcAfkBZp3Yna/kcqhvPh3iBQhTO4wFtG/fzwr6/M+zkIQ4q669nep8iIYjR54TdkCqhljoJUF2VYE2EQoRLbXyRnmxYcj2EQIEgawhIVYKnFrkcsZCqBFCJgb3UUGipzif2bBaSgq83IqfcstqwrDZ8X81I9f1jRTlj5WF6x5lUcZrCcaaPiimMYSUGW32f/xId7TLP4+Virv5pQ6b+aa7L7YZOurtB3/oB32dbSu1UJzoNkpvZdpBTINvArFTwfT0Lp5Ss+M898D3RYd2aL/+6fiI7Q69MDOpFAbjUC4yOGoljBFdiODfgnhhs9GBlnb/yY8VtzBTXwd6RZZHcRGMhpYorGa8Qg1cbiMGuEDGIqpMAep0EgEIo+z+zFWKqpQPpzqCwUgmptfo2EmfpbdWQeHH19f1SJQxDGeLcaoiJ8s3pr5RvXbYd5BSEUW+55PzT0TGV4PvH6O7ep7R5XhuJxCQsqx3fPyTiD2FZ7bhuB65rJg6uuwBWPIPHAAAgAElEQVTXXVBh3RIKherTg+b3LSefb2zlrVExYvBATJ/LPc1Qk6AeXFDD+6Vlcr1Ur9VxdKli6aqvR6lwSwq+Io7l7mHIVSgNnW/wy8v1wlRb4RhlC+PwU9raZGCXXC+OA1uTMCd0vuQ+xwL5Htgf+l5LlSZrvbSOAlPKwcfIcFy4DLZi8GVt4qRFUq+Ho4x91aJKaPmGvo3Cu8p/Zx6E7Fp1fTxU+8CaB/Erqh+ncxqkRX0EK4JsNBp9JkYPlduyD0H8+vpGFcTzHY7TGEf67m5dshguplRJmZDJrCeb3amsi8etmjwNMpm/am2ue2pkoqHvb9barFI2qgGjghgMFEvTaWbUSzXrwBjbZqIgAGNsW5cpQuWn/1wOrhUE6GcjTKnQBtyTDF4Ab69xCiVMINoIOu5w22C5x+2IGCWQUwgDrTJZhPpxHdqM1spNNDF40GolLCqrEgC6P6+/pxCqn2B3G1QJ68EqPuxaCyH/1UYcaXVkH4LkV9S2+PX1bSP5D+qy949lYuB5w2PAIiWLjjM9khj4/jZiMXVazfO6avI46O7WTSEKhY9VjD/hiMEsx9Ge7KfbNlOLHeyeClLFF9QoVRxvGDUYa1mMFR34cd/nqBgBaLVtWlMp+LDokJ4bJqVCo9BC+Up6JBm8zvEC58PFDrR4ZQ+D48XXWMo96OVpmGfDQynIi+9mU1Z/gl9Yx8hN+Hc/v0hkptqwJQUHxL4mejDZCT7LHlOxqdB+J+pTHG24tAiLYYnZ3Ft1/UQslvLrqjGLuEbJKQCUxEOAFbxfWZ6NOjG9gFNYEHIOBJTEQ4CXin0sEOoCi3k4VCfcl4njamJ0ILcWYsJRO/3OMjEAXZUAkAiV1cj/16AcmoJ4XM8pqOdZKpEYic5sw49RTQw6DZ30ItdlUWicqDeTIS/GkgbiRdMhCMQR3+eISIIca1kcMUgV24daqthlwY+r7PNSFy6tMG7+9kTwKuF7PWVb5BIsG5J56M3BTypUbTzHDcyNqqF0CAsckIfbm6w8orCzSv0H0P0M1sZgugfzXJjiIKaly1Ml4+ygPkIJu7oD2+NwRvoU9Too4Pdtory58h3qiGG9LJy0H/3zTBQxu+nVYsKkYEdRBjk7lLw3wyAXPJMLtbYw5tLJ3Cq1CSBQILxBTJ1IvF0UV5KIUiSAmmhogst07ojQGf08omRaf+oknOxI6nmlCjHIrYasmBaJv7pcTMleGuQUhGHX6cA4mCZGEOQUhOE4o7rLrBnD+ik7LIv31zDX/8IKWf8vEmd/l++zVjylr47FNBJQy8j1BMvCqqEjP1JBqthQk72VDnxPfAclWvyBRPCqhC4DfV5n6FDDJZfX+/CcmO64y2By9IeU3vmW8HAyKJRUGk2oRsxviwXrr0jDq0Lf+a3d1d+3IwdPxfTchLHF5aOirYVAtljJzX5/MnB1nJWGGaHhf9MFtE89sML4Vgpt5bYWPkNLaD+HybE3VB8AYDI/YlJommErP2Ef31ViFvGbPnKwm14e5g3K+plcx5m8r295G8/xKKoO7CxuZBmX9C1/S9RLAHhHqODSZjbxXdQ79gtYwTW8tm/5R/yaB8XoyM28gXnM6Vv+jqihAPC2kLriTp7jMdRJ91eyjIWhYkq97OVZVBvZZUyhi8l9y7ehztcCXBHahs8xbHGrswy/UEkEZJ2ERITdgtsBhQhPmXxEykwtqoTRhOQt6rKzokwMLAtyz6rrc8/WP3uaNFQzbwQxsKwg0bASvBOYKY4K+nOaIVOkVqniQKavJ4grNG+oqtjRKKmibQc5BbINKisVJMLH+2UDjb6x+GtZk4PPiif8DxdlihCQgq+J9TFP7aTvTcJ9RbLQhl7DukA5odCEFsrSwvB2Z4c+Qyu1zfmHDZjmeAEJ2B6RXzDbhYn5QK64PyK2iX7hTsPohnTa/b9sUZaXM0shBj9jPT9mlxLzU07v+9vnIO9A9Rh+NxMUYpDjqKZK+Dntilyx+wgaCqGbR2ZP9ToJAJktkFXzzYjPBSvUt+TUjwKockUKYAsCEk48BDXR0AT3HMibE9/74DW2nle/EXuf3lYIlXOOX6/nFNRDHCwL8nq+Xs3w/aMGZcIYEolJJBKVWWAisagiOXHdBeTzU80rI5BOq6Nndo2s0fNOjw4KYViJwaOZDL3CneK8eJyO0Jnf5vtsFcl6HbbNX1MpNg2SX8EB3+f5wZIqOg78vsLTv+mKr1RU6dkcvEd03l9NwxXFzj1l6OxuHACNPsWBi0NlmLM1dKbHCTr/8KDQ6R78NQmnerCmyjaezpTfV+r0W4Bz09Ah5rVLJARghgN7I6YuSphoBY6GB0X7/qw6YjCMpSqaGD3I7oWkgRiU4O+GmHhC9mYFFRdLSD0FyQ1qTN4Fq1ylmh5R7hgg8ZLQfjZDbr263hZEIaEOXmmwFwU5BbJtqGFZ+i0wl6tPVTBQE6RqyGR2k82qpDMen1qUM+4nl1NJhW1PwrL6V9LZsmZhWf1zCU0kIipvCQz7iMGzonPvchyFGDyWStErYl42wLn65fl8XzJiJQxUqtjmOLSZpIr1KBUA3iQ6/7/3GqO1aSSOEVRtNJV0BtVOuduBpWnIiM8VHhnY5sN9xfWlTrmVYPjnkdD7usU5GQusiZmv6noUB4eSsNOBCcMg7m6iiQgk1+htiuRxPcTE/H/6ZaoqocVU2TA0A2Ut0FUJubVq8mH+6zUe8ADg+xB7s9rm3Vj/LTD5cXW5UeWZs9lDWkGlUjJkLrePWEyVCabTc7GsieRyu4nFnhPrFhcrMO6ku1t1LvW8OSQS50UeT0/Pb7S2ROKltXwUBcNODAYbywxSxShSUA/G2jZjDaRhTD0llVMp+JQgIo+PcqWCCa0ExZRKkkUoJ/zZ/TCmmu1AW+h9O6oUe6o0tTHBhgleWaHQSkAw9sTom9qeEH0oLXxWLKsjTOOwGVfVtBcmsRJ4a9WYmVynLE9HtdqbxWI6uTLiaJtoojr89RATfgneZeCG/BByayCrOnMTf2W5mJK7CvJmh/CGIv/w4O9jtEAWU4L+5VucUMRgjufRIYb8u0UHfY8hT+BFAzBLGmtZTBPf/DHf55jIAWizLDAYNTFAo6Z+YYkNV1fpiBfb8O603lbCfAs+IojL7alAphjGcg+Whc7HumyQkBhG6QrscuCsOh8DZtiwNPSeXgeejZVlJ5VGDsIY3w+SeAiYrW7IUDZBwVgsZkQQg9lcwWwqO89MpUtJNDRhBgt5EdUnocOJhibMpZMP85mqMa/naiJGo/lMhGLhUhazhBlVY1YwlRWo87HhxEOAbzFTWV4mFAo2Y/iokomqY5jk7KMa2cd0ZUJc1NyKrJfwr405loGYGPl+ge5u1fbS81pIJAazTvvIxqglBnMMfgXL4nFmhEYD/EyGR4SWZSBSxW5DVcVKUsVjYipifD7fWKXCMhveXqVz/0mVEYeFFrynCo1cYEXbHs8X61+fgCvisE5MiSywobMYu67Guf9HanzM+GuqfDJPNVgnl6yWS2gjmI54qEVtm8AAjI0ygPxccQjJDHehJ4JOCw3+HsBnGz9R1k9kJTNDJGE9d7ATVftl8WqmhKSKq7mLrTyhxJzK1Ypc8UmDj8LpIeniFjaxQSQNzqeLOSHp4ka20MtGJaaLeYoiYT26xZ8snrTOoCYIJx4CXM48LSYMS1gfm2PaSEQU6EhUmgYrwp0ChQhjuvhcNacA1MRDgPQyddmepi47cxS3jFGPpOGnHCYG7hV6HnV/KhwmBY/1PtKYGVfLGkOhMC068ATDsBKDs1yXeRH5Ap2OQ6eYq59lWcyyLJaFzvxO32dHLsfO0Fz9QKSK3TXkMRzO5dgnRgEmNVqq+P0KSgXLgpvqlClCUFipUuzdGXhCdHJXx8skYYMP/yjqU7zIgzcXj2OeBf+q16/gM1VGRQoEiYhh5JNS8B8QgDCpbwU2h6YOZjvqyS1NVYTbqnX+pUOc4MFRMapxOLSdiWmYGL7jZAGZRKmSlCMGYiAlk/uQzmTvUIgBwE5BHqazQiEGW3mCzagl707l6r6/n2cD96Kaz3dzkUIMNtDL7/iZEvMSrlWIwR3cx4Ooqd4f4E3K8kfR3W/+g//T9/c6dvIu/qSsfzlzuCHkWXA7G/mw8Hb4LJZCFr7IBr4uDCluY0EfWfA5SkooEgIvylCBpWOQFUX24mNUuaJ/GHKi3ILdrhZRioI1VSgQDHDt4FUN+euqr7cXBDkFsm0kwvehW9R+8N4BiZvKy+n/VNfXa2LrupCXlVXrgO8fJZVSM5QdZwyuO554fKrBYKm9eJyTSKdVpmjbk4r/T8Xzqo+WDSeGfcSgI4Ia1ipV3JnL8ZTopMfQ/9EBKVXc1NPDZjEKMKVRZbIcB35Rh1KhGm7PwCOic782HnT+vT68VXTcr/TgvaFOKiM6uTOcxhdNCqNAMI2wwtXbq2Ec+sntcmFakdD5qWhL5BJKncIkD2bGYXdx+Ugo76CJUYvPiGmEj4BmUp0U15tzXC2glNoDIseMvJDoduvTuxRCBZIyvq5KSC8DN/TzyjwDWVXBSfx0VZWQ023vCVvlW3PVREMTCjWUPE6LGanhUiU0CjK/u57tJ5PqNeQVc8CrFVOyrIkVFQiWNYVE4owK66ZTKFxtXBeFfP610UE1YNirK24SZ6vTthWyYKqs2AY8KkjAWBr3YXyDlVZD7PwreR7U61NwiuHR95nine2RLPxIdIjXNqAOaSPQ7QAePBM6vkbP7U61ytuVBZumedGeBe0WdBSJ0n4H9ldwdGyiiUFAdosuV4wLCXrsTv19hTPLf2cehJhw1U5fHfgb9MXcB1nRUcbdoMASBOoDK2KUIf5KPafAWmiOHQhyOYi9UW1L/6B+yWLsKrGN3zaGeKRSu0km1RGFfH4OltVOJrOVbFaVLMbjc7Csifj+HlIp9T7vONMrVl8Mw/e3kcup5T5te3ZkMaVaMazE4IFUSpMrvi40hL/N97lfEIAuz2PhADwFzuqPVBEYV8foQJsh/wGojwDkcvB60Sn9KD3ypIr14Gw36LAHMKxXN8JDxFMd2D+E+26iiRGKbA6Saj0e4uLW0qKabAJQ+GH5b2sh+OvU9f46lRzkhfPhYMCyIP/oQN7fQqEweF2hrLLoOGUvA1lMKRiJiCYGqdTjJJNqLlA+X78ssRKGfSphMGGn08waRKniOMfhmKmokusyVnbgvq+TAMuCFxjm5PeNYkedFREEap4NV6b1tjDOF+ufz8J6QdbONBgdhWHFg1cYUyyYF/puD0TUWpjowtioXJM4MqcAUd9gGg9W3cIELCx+XzVmAauYyo+rxpzK1UpOAeh1Ei4U3oNzUK+/+XTxEq7V2sJYisVS8RnDiYcAlxD9O3u5eM8ZjGLv35MQ/jrofofa5l0NifeobdL2GMq2yBDkFIThrGzM8dUD3y+QSqnTBY7TiuuenMqEE4YYzPE85oqRhBmhqooAT/T0sFOMBpyVzzOln2RhrG0zpcYn+OPdOgFoHQ6p4itFx7089J1d7MLiKh3hfAu+GXHMr40Qzc6xglc1nC6/U5eK9Q0qYUoN53RCDTFjo2KityGLJRkPpYaYKRGVCk3FksKYzXxmiwqKEnPoVBINTTiPFVXXA7ytiuwSAvXBDRHFkS5nHn+OUCXcxHxuqrLeYgyPRigS3DbIR+SROOMgLeYTZeKhp6oomyAgBbEPqW3pz6n1EhLVTmCt+8lB7FViP7+ob4A1KRJNPO84rtuGZY0hnz+5Tu6oJAazbVurrDjLcVgcugr8TIa1Qty6J5nsdx5ZZyJRk1PE/p4eTao4MZ9v+FR6RVwb13MKSqqDLktNNDShv4mG9xvMm84L/Sq3+LBBzCHMt1WS8AdD9v6VoeN9NgNbRGLlC+IwI7SNx3r0Ogkr8+XcA4AnDGfjjNBN4bAP2wWRG+fBzNCxHM/AcTHV05qG1vJn3ksPR4Xx0WQeYUyIBKznixxAdZJZSIbxoZh7DZUQLwzJDneyjrt4t7J+Li/lPMql7p5nA48IxcI8TuN0XtS3/DD346Nm0F3AKuaEOuf7eZjVQimwiguUEYPvol8LbxXpfnei2/ddyhJl+Q42aDGrQsTG17ys0aSLvsG/wDLc9mTBJAk3QqoIkFhSfb1rQSHi5xU/Xc8psFSbBtKXRh/LaELPFyH5TbUtny7P/9s2eB8Y2D5sO8gpkG21wrLG4PvqteT7R7GsMThOe73GuCMew0oMuhyHLpGQJ1UK58n1ts0My+Ii0Uk/l8nwXChRcXs2q40O1KpSWFRLVUXfZ68gHuMcp3EEwLbh5gpX2zNVntr7I1Nc58OvheD4DAcuCdVG+LjoKC/y4K2hc2Aqu3xe6Dg35OC3IuaqtEoM1poSAwWR2SRi5jgqMWiiInzu1trCxADgrzykLFssVYjBanweElLFVVygLN9tKB8t/Ry/IPwWQCUGvezVpIpxpivE4FkO8LfCL+GbzOKKkGlSikOaKuFRJinkoMVUQCnka+Afhm41zwuvXa22WEsBJX835IR1gz09WsIo4Z4Zsf4cKJxTPSbu6jkFVvXBmWGDZUGiujdYTdsYCIJiSuoJDoopTcZ1p1YcmXDdDvJ584iVZU0hn48efTPBcTpJp9WRvf7WUTBhWInB8ohxnpJfgYSUK27P5XhaJCmWrPX7AylV3JnJsMtQVOmwoZ5C3YU4/6FC529ZcHOdw+e3G57aLy9+x28y5DLcHuq4fy87Za9MDJpooolIyAJKzmSVGKTWQFL4PuXFbEr3H/TtFoQCreWrhhgxr58xeIm5oVnDWkhAONGwEjyhqnOWm+MGip4vQPILalv+/vo6/FQKkh8R21jTWEmkCYECQc169v39RTljDUNRBrjuqY04tIoYdrmiRFRlxRbgMQMJaFRl7P2GYzqYzXJATg/UWW65pdJYUz1G1r4PPxFP9iudoKKi78NN4on8DV6ZGDTRRBMnBfzNulzRO0MlBpn7ICY6/vQbwD0/tJ31kFPr/GAvLssYrYV6oqGEvSzIKZBtjYZtg/ex/r/fslrI5yPsL/sJ399Pd7c6deZ5k0kkFgHQ0qKP5BUKFwPQ03M/yaRqbJHPX4xlTdfeE0Ym8xjZrCoZicfPrVnOOOxyxdWiw43n833k4FFDZcXz6+yQw1icTmNFjFJsTaU0uWIjyjm31EMAMhlznVCAr4sn+xu8cqnlJppoookGIXUrJO9Q2/KfV5d7/k1/X+K95b+tLlWBMFiwrP4VC1K30YLvqxaYvl/Askanw5ksqOQ4C0cHMRhMzPY8TpVelUOAiTUmKQJgMFIikQhIwRcEARiGz1IXXhNB2ObbQU6BbAvjVRG5HctcmBURszxBpILhjAhlxTgLOiNiWl1orR4zmehjWcBNUDWvXk00NGE6C3kF/1s1ZjbzeQWfqhpzNudp0kSJVVyg5RRIqeKneEXVbQDcjNn1LYzPCqXGUlFMaRkTeFdE6UuHNj5SNaKJgSCpO18rxMDvhe5Xq+u910MiVPY5cVNjlAk9PZD8pNqWf7L2qQLfP053t5pw4nmtJBKtxb/V7tJxTtju88QhBqeLkQQpVWw0xtk2E2pIUgQ4biAArYkEfMKQbDdQ2lsJr66SNrvQgq9EyBS/E9FRnhcxalGLTHF2DeermWjYb0RJFQEl0dAESQJMmF+DH4FUIEh0MVmroihhMZ6bqG4G4zJesz+WKESMIFvjoBDx1blzoEKOWR+cmZAWCgOZeOiN0JoGg43MbXqbW13xWjccB7zqRUMrwrKCRMOTBaOSGMwT8/VzhFSx0ZiRTjNRaFvGG0jHoUyGfSJJcXw8DgYnxUEhAF8UT+RLQ8f8voj9Lexnh7vRoHaYF9rWZh/WGyouzg3F/M4wcvKS0PFu9+FJkVsxx4FTQufcz0BO5FjYabBCMat7YK84F8vyMCl0LOsNupIFghQdMsS0l2OO4bMfNXW8jY8xMTR6cBCfjaxSYibwbjpDpZk3cju9qCLwLj7HPC7vW36OO3lK1ON7AUkWU9a0Pc2fuE8UaTqfd3AaF/Ut/4of84yoEvlGblKIwgM8zGpUArmKC+kMkYV7eJKnReXFq1ihkIWvcx8SN3C+shwlVQS4jR1azBWijHPGIGkMF1DyDXw3SrpYCbKSorbfGn5iiYujY2SioQlpkRRoD4JVcaPg+xB7p9rm3aASg8TNA1cmuO7AjGODYkpqwS7HGYvrVq/uCUFOgfq+iItlmDHscsVqAtB5jsM8MRJwqutyqji7O32fnSJpcHo/RwsmGY5pvG1rRGCvoYZDSzareRg0dArAsuC2Ck/2ltW/9No7DUqGS0Pf75sNd8n/DN1Newxqhy+F1q/Pwf8VHfbL0ioxWFODTHGDQTVxSjO3YiixmjwP87TStkp4LDzNRv4kyMNVwhDpt+hVgG4Qyx9Bv87vER4GUqr4LiYoxMDnKNcJYvBhxigjCLnjEBOVFdOtgelRCZk9ENsjYqao3gY9a3RVQn6pShYyPmS3qzHxJeqoQeYZNLinqMv+Vj2m3iJK7vlQOL96jHM6pKWnwjCOaBhuuXV39JXStwZWTKlYyVMUUwL6iimVEg1NKCUampBInNevZ0jXXU4+X92orBqGXa5YTbJYa2XFPxlcBa/up6vgbNdldmi/B4v7OxjabyuwVygjxvVHqlgJ8bhOKKpVW6xWcOkOQ7XFV8fLHgZfMPgPXDqKLZmbaGKEIrtdlyvGxYxKzOCeXRDEoPu/DTHhef3NkLpLXe8sVlUJ/gbIiduGbYEVGpRxaxi9yH87OqZRiL1Obyts0duqIZuFpHBiDN9qPU9NNHSc2hMPc7lDxGKqUUU6PR3XDZhfJqMzOtftKK5bb1g3MBY2kIJKI1auuM2wbpZlkTGQgOiBnP7jYC7HdkECJjXK5urpKk//JlQiAKtzcKPo4L+cLksVfyaetlc4lY2QmmiiiVGP5OPqsodKDHK+Wa4YJgaZuyEmVAfp99ZGGEqwuqDwQHRcI1BP3rcJllVONGw0fH8/sZg6UuZ5k/uIQSz2nPaeQmH4hmeGjRhs9X1SopNf6nm8rHhmt+ZyWmVF6YLYaDyfybB5EMo5t1ZKUqzn6d/34TJBit7j1W+C1EQTTTTRIOTWQEyIXdIfA/ey8nK1Ac2+9/y7utxfrwPfD+omKNuy61MmmIspjcp0vH7j5Pq0IWzKZNgtJpsGam8x3jAF0Fbv038qBT3iCf/B2tQPwwInYvRkgR3kFMi2MK6L+HwzLYhFxFguWBFTIEtrkDLKREMT2qvHtGExhd1VY8ZjsdhQLyCMeVzOPEOiXhiLuVRJNDThNC5SEg1NeAWvAwxjtSGs4kItp6BTqBSuYoWWUyBVCl+NOF6Az2DIXRH4JqoF7DKDdPGnYjzRFrc8uxW85szZoCL1U0iK0Yn8/6izo40SkKVSkPyE2NfTxtCKSCbVpJMgj4BiMaX+ORWONpwQxGBOP4f2d4tEwXpGByaL0Ytxtm0kAQUDAWixLDjFcOM7OAx3qJsjRmH+M+KY3hDR0c611ERDEzpquCvMbE59DDckCTChFqniQqq7toGuQJCwGK8VTNJjxhgLJikxLZCI+NG7U6AQ0R8klkTX/4wv0XMKpFwxHVHjAMBbGh0z2pDJQFYt00H8epUwpKtXHa8J1dK3akG1Ykq23Y7nDebE9tBh1BEDKVUEOE9MLO3yfXaJDnlaPynpBM/TvqR2x2GySIw86vscFfscY1kcT6UoCALS1uhqi0tteHMFcrTKhR9Vedq+dBAz+zcbRkXCJGGrD5vEuF+nXSYK2314XMgU5zpwauiY12Zgu0iuXBqHaaH9bMrAepGDsSANnaHtbO6Bg2KkpjMP7aHtHOqBYyJmfB5ayzGH6OEY/6iG8BStIbOeLXyBg/yr+rG4i/ZQTI4vsxv1Mes0fsGkkAFRlq+yFdX79kK+xbRQ+eU7+Da9/FGJeRmfY1ZI//9rfkROSBVfzwcVqeJfeEiTKl7GhXRSTn+/lyd5WsgMX8LZClm4i9U8gZqEdTWnsjCkJuhlD6vFiMtSptJFuXf2OcCzqNKxZUzACo0a+BwlJwoo2YIs1CJX9A8bYvpRiKWWYklSgWBC4qUR+5kLeSnzELCtIKdAtg0nkl9Tl52VaqfdCEV6aVY2DN+vjxx0d+ujgYXCTCyrnUSiMnlOp1WpiG1PCq1bXPsBDAGGlRgsFZ18l1POjumwbboMJEBWVTThAUOCYqyfKoUJjqOoFCrhaC7HIZGf0J5OD3h6QsF7xPexsvh9WRZ8oMr30p9Ew/U+rBWd9iK7XJb5Bz1wv+gkP5Ivexhs9uHr4jyc6cF1oeN8IAWrpbxTkJh1BpniqeJ8bBUxMx2VGDQxYKwmzyM8pbRdpkkVN3APa5W2l3C2svwEWzW54tWoBWF+Ti+3oGZ3p1Cr8/yE7XwTtTBNGlWsn+IgnxXE4BFhmpQ6Bklxa8iPUcmBrKwIuuFRyyOGGFE4r+chPSaxUl1uhFwRouWK1nw10dAE92KooqQDwF4C3iurxzQKvh9MFYThOPUThlRKt5bJ5xsznZHJ7CabVSWy8fi0YsGkiRXfN1AFQqMxbMSgw7L6Eg1NmGVZXF4DCbi/p4ct4iyPo3+1Deam03TWcJVtbNGf92c0KjHScSBhePrvT7XFaqWW78yAJ56ik+nyCMJvUnCHrB45gnMdmmhihENKFUGffqhJrpgyxLyv/Le/CbrF07e3HBKvUdsyf9a3416gt1WD1aVaIJvgrIQG6bhICi80L6ESA8eBtLBprm+qoJV8vr91eQMkkyoxcJzxWFYgZm9peVyLLxQCM7RMZj3ZrEqI43ELy5pCJrOGbPZ5se6UvmJKmYxaCh0GVoFxxE4lmOSKT6dSbGhQgaNO12VyhKXxQd9nu6CoE0KjGgPCJyv8VOq15/L9QK4YxtJiGu7PU/AT0bn/ON+UKuPeFm8AACAASURBVDbRxEkOfwPEvq+2eReoxMBfD91/L2JcSPyt2pZRZ6oAVZXgXh68hgKNmW5oNRRTOj7oxZSy2Z0kk6qbZzxevlfLKouOMxvLmo7vbyMWUzWhntc1OonBY5kM64Qq4Nx4nA7LYpvvc6uYDujyPAbG43RMroFKynLLeF5d+QEtldwd6622+JCYR7++aNf10xR8Txzjrc0n+yaaaGLw4fdCTBQu8l6lEgOAzO36e8NkwXUhf0djjqlSbbpaERRTUl0Mg2JK7cW/R+zzdMMwrJ9Qllxe6Dh9BkcDwew6O+9GYIxtc8xAAFrrGQGoVm7530Tnv9JpnMZnsHCm+D4Wi9GWLge6xBRMWKEw04KrIkjOIhdmRMR0utHVEufWIGVsj45pr6Gi4hxuBqobv9vcCNxYNcbhPUB14/xVvB14e9WYq3k98PqqMZdxoZZTEE48hCCfQOYUSJXC1Zyq5RQsFPUNVjCNFUxT2sKJhwArmcA3hDzREssOY/ipuMVJlYLTEj3M7TXM0vTkRezv9bbCw+pyo25nyX/Q28LEIMKJPxKJRA1ZpKMcJyT1WRKP97tWQn8xxrIYUystrUQAslnwRki55Rc48ALpPxD6Tt+YCF6VMNdSEw1NWF4DYapFpthMNBx0SBJgQm1SxRmRMasiKiYCXMHMyBi3Bk9Ut43I6ouJWREB6ImGJuRfGB1zssoVAVoW6W2FteW/LQvyhhyMejHQYkoAPT26MiGRmIrrTiWfH/1MctQTg4vzeWYOMQmYV6PCoeD7HBc2XK22TUs2Cx8fAgKwwqHi89ClbvWaCBcNc4GibYbEyVniPD9nqKqyWBz3RkPMvFDMQR92iGyuCQ5MD8Uc8+GgiBnjQHs55jg+x1BjWnFoC3U7h/HZzS1KTDsrmRKK2YfPJn6qxExhJXNQJ2kfQnjVAitRs8DuRDeyv1SMHjzKffSiXqPn4dKhSBUfZI1QG1zKRQpZ2MDz5IXaoJu5CllYxw6eE4WPFjOrbqkiBHJFCTli4AtFQhCj3vIaWV0xCta06Jia5Iovi9hPJxQ+WT0GIP0mdXm45Yq1oFG3+kxGP/GuW/uJTyaPaG2l58JSoqEJpURDE+JxS8kpCLY1pXhsS8jnK5PhdFplnbYdTdKrYcQSAylVnOc4QVGlwShXXAHjLYsFEQmKJRw0lP4ak81qHgYV7ZH7i5UOrBRP9qVfzyo3eDUafzZ0theE9nOLYZLv+tB5eyQDtwlFxBVpWBHaxq0GA6g3hX7MO314SmxjjqcSg70+9IqYaZ5KDAAOGCSR00WM9C/AU4gBwHH+fxHzSYUYABziyyLmRoUYAOzhB0hIYvA8/6vFIIjBOgwTu4IY9JLjWf6itJ0njmcNa3lUSBUvFU6KeTbzPf6ktL2FixRi8Bzb+GfUrOwPcKZCDFazm48JEvIpFmkeBlfSq8S8k0ncFBpp8DnK2aglET/EGBLh7RSgW3AHTxge+Yd1uaLXro4i+Pug+1kRMxkSoSd7fxekhNGlMxNccZkbksuROWS1yBWjUItc0VoAhVuqxwCkxWVvLzHHNQIDrY5YQiymE4NCoUwM9GJKbTK8Inz/EN3dsi7C+D6PA9/fr70nkDNWd9EqKRD09llYVg3DWnVg2IjBctels0InWatUcU0mw/PiKjmlwdMIstzyYd/nsFBMtAIHhYfBGIMxUr/hunBnBUJxeT86/nWGp/GFxc+53oebxd3qcg/eWTwfG3z4vuhsL/BUYvCooYzy9UNH6JpoYiRCyhU9dGJglCsKYtBtcAAs/J263PJxQ8w/qcuZe/UY90K9rRqsruAVhfSX6ttuNSQ/py47It0qbyBX9SAopjR40wGp1BaSokZ3Pr8Ey5pIJrNeK6iUTi8ecp+DYR0xqCfRcLvv85SQDrYA28QT+WzHaRgxOGiQTO5LpTgk9jm9UR4G9ZZbroY7DE/1pdGDX6bg16Lz/la+TA6aaKKJEx6x/9TbCoIYtFxniFFnuvB7IbdabbOXqoRhqOSK0JjpBt8/RiqlThc4Thuu21DLuhGLYa2uuFnMv8+1bTosi9t7evBF53tBOq15GLRCwyWMYawzOCjOaETJ5YEadpdwm0HG+JriuNpHYnr8Pc1qMU000URjkfofSP5cbcsLjwTfr0AeQre9cKLhQNFieOAvHNLbqiGZPKYsB8WUAmKQz5/YyoRhIwbZVEqTK17f6Pn3YUaL49AiRhNa6iUAvg+3iMS3lUUf0Iey8F3x5P+aYVIxNBpdNRAwqZqYYesxUg45RcSMt2B+xHXXZsGk6jGtWIzF4GcbwjgsOrinaswkLGx+Wf14gPP4TmTMVRhyPbTtuFpOQTjxEIJ8AplTIFUK3czlLSKmW8QsZhYf4EytLYylTOVTLNLaJN7JJGV5paGy4oekNNFgUO6JfDNnqHXOJwlyqyH2frUt/S/Dp7hOpwd2oi3rxB45GLHJh4OJBwyWxi/sZy2FEsYLAjCmQrXFishk4DrxlP/TdFBM/Cui8/87rzEWX/3Fm2Syo+hs3xvR0a5wYUXE9315RE7CdCt4VcNkK3hFYXwNMW3RMeFCSZUwroaYSTXETCN6YndmDbI/SQJMqFWqGCVXXMiMSLliF1M0BYKExQQl0dAcoyYaGmNqqKxojdPrImgxk6Llita0BsoVl0XHjEb4PnSL6uDe+yERsvxwXcgL/4P+oB4FQiW0tOge14XCLCyrnUKh8m/YcSYNyEdhKDCqiUGn53HGEOv8xxncMcbYNuNqJQGZDLxUEIDfNChHoVYsryJjXGDBj6t02vOt4FUNnaMkV+GAIQlzgjj2o4aYMWpMAUNpbdG5HzbESJKwzxBjIgm7RUY+wFRBFLazXouRRGErG7UYSRQ2CQki6ERhA3qVIRNJWMcOra0WX4MTBTXJFWtwsY2SK4KeaGhC+s3RMSMRjRpl6Ok5rrUlEo2zPfZ9fe7Cstpx3Q5c1ywjcd0FFArDX1Bp1BCD2baNa5hqGEwjowkGWjelRneMY5kMx4ViYkw8PnSOjJ+pQjYudQe33HI1PGxIijw7dCxPZmCjyJtYEYfZofP8v4Zv8f8TZOYeQ8yLREyvQRJ5iojZY4iZocYcJ0WBjyptbaxWyMEebuEwX1RiZnGfQg72sZpNwu2wky8rUsXd9PIAbxHbuYazhVTx9wZnxThqOnuKz2ox7+MryvKd/InHeFJpew/vUMhBns38J3crMW/mYi7kjL7ldezg/UI+eSWdvIsXKW2XiO0A3IVa4u809LTzp4WbYg97+JzwMXiYKYqPQeY4ZMXpjreqPgaZPZAVZZfjU9Syy/4+yO1TY+xJwUhCGBnDQJpUJfjb9Rgr2supX6hFgSATDU1wlkNaLX5Zk1Khv2iUZDEpy2oS9iJoI5+PNsiqhECyuElpCySLc4vr95MTF41tT+qrwOj7qtQ2OKYpxXU7DevMUsb+YtiIwULHYaEYfi+pFC5PJGryK1iTybBTJDAuaeAQ+4IaPRP2GMy5JzqO5mFw3HGoXQ1bA14T13MKwh4Gjca9GXhG/CKvjJdHEP67Bx4W0x7vz5dHELb48AcxWnKqpxKDjVnIi22sOEHyJpoYUcgW9JLLpistKR78nHEqMcjtg5gYfEnPU4mBvwtiIgXFm60SA387dP9WxCyExKVqW8u/6MdYEPP3mb9AVvgmxC8NzI/69rcBcoKs2N3R/gYS7qroGHtpkFMg2/qDbBaSn1Hb5MBxvYmGJlhWQ+/WCipJFiEgBd3dah1vz5tBIhEQ7e5unTwXClc39PiGjRic2YAO/ImYnnm/ZIC5AtVw2PfZLSST7Y7DUVloCaBREkbLgrsrzNn3Z7Tkj4Yn9suK5+LuDHxFfKd/l4aLi+ufycI94rNe2ey0m2hipCG7BpKPqm1xQTBSf4CkyIXNizoDmbsgJjwI0n8P7iVqm6/PbimjBpY18ku7SPj+Mbq7VYdNz2sjkdATXU80DKtcUaJUWXGrGAXosG1mNfCqGkiiofQwwPMaMwrgurCjwnHV+9m/bMhGv7E4+vFpg4zxsqaMsYkmmugf/F7ofoPa5l0HifeJOEO6TvjWZllQMBCMfh2TD91iRML7dGONcwuFxroNjiQMCzHY6vvcIjwClnoeVyUSbM3luE+MBJyfTjeUGEjs9332CTIyybaZOBj7dF043ICOuJqHQcowgnFj03lQw6QaUoPHRMe04ACfrhrTzkrgpuqHw1ImE50RNotrlOWZLNdiFhDtKLOU6DT5JUI6aEI3c7mQxZFxV9KpLJ/BnMj3NHHioNuQNFl4XG8bKuTzA0809H29ZkJJyuh5ao6C4/Q/Z2GoMWqSDwcTm1Mp9oqRgKUD9FRoc92B10XwfbhIZCe934ObEwEp+M4o9DC4UkyxzBdSxxVxPadgtiBoMtHQBJloaMKCGsjSlOiYVlyiavRNxmVyRMwkLJbwgaoxU+nSEg1NuIR3Rsa8jDdGxpzLOZxLdQ3dfGbzZl5cNWYhM7REQxNkoqEJMtHQhARToopoE2/VcwpkASV3CkQVy7MnBTkFsk0iLQok2YZ8MW+huuxEK0VPKGQyEBPFndLfV/O9G+UPZzWgWlYqtV8rqJTPT8Oy2vsSDU1wnEmk0+pFUko8hCCnQI2fHlo3+IR6VBODMxo1jz9ATKlAAGo2M/J9OEsQgI94w1dyuRKujOs5BWHp4msTwasS5ljBqxokCWiiiUFCrf2CFWGvahkUCFrMtGi5ojVTTzQ0QSYamhC/VM8psNQBG5xTdLJSb+LhcKCRA7ktLfoTf6HQOPOiTGaX1ua60yrKFSFQH5QSDU1IJM5ryLFVw6gmBo1UINSCcZZFh4EEjKmHACwVBODTQ0wAPlqFTF3swsURHgbDiR2GScoZ4ph2G2KmipgDPuxXp46YaKseBkd8OCJixtowNrwtH0SpZXCQowc7+YJ2SNOFnPB5bmcfDyltHVzHxJCcsZc72MFjSswirlE8DLaznif5tRIzhzM4RTyJ/xbhWQtchfqoluVB1qAWdLmEi0W55a2kUSv/nMICLhAOh3eL0s4AF6OOFgUll9Ub6VKmaZUVnxUll5cxQSu5nDGUZXZlWeYaSi77hw0xgij4+wwxEURhsCFJgAm1yBXdS6BwSXScJ2oqOPrsVkNhEII1vPCuZbVRKEwe0DZiMV1aWCgEDDGT2Uo2q1488ficvpGDTEb3IhmqYkrDRgyWCo+AhY4DBImG50sZo22wujXg9wZHwxc3WKVQq5HRIcOxtA+V5fNPquznskEiUxsNHfK80He1xYcNonOYb5dHEJ734ReCNC3y4MrQr31bDh4VyZNnpWFZ6DP5KdgupljOzqvkYH8OtsiSzWlBDHKwX8RMTAtiAGAoxyyIwWE+jw6VGOzjIfbyXaWtA72CzXZUU/oZLNfMjTZwm/Y+SQxWc7/hmFRisIbneJwnlLZLDEP9f2aN1iaJwZd5VIuRxODn5PmZMEH6EWcry89ygHej1h3+Gh0KMfA5yvWCGCQZoxGDbtUKH4CCuCOm9uhyxfxsg1xxgxqTng9uaMTX3wXd4iv3ZkNiZShmG6TEnLvTqZse9dyqH3fi5eqyvwly69Q2e2FthKFeWF16oqEJ3lsbt8/kp/S2MDGwLCjogwEjDlKy6DhlLwNZZREYMvOjYSEGHZbFVRXo3SzLqinR8L6eHjaLvIBxBIWV6sVkx2GyICO1Jh4eyGQ4IJIlJ6TT/TqOulDNw6BrEJ7sv2eg6G8pnsONPnxJdOorPXhd6Bzfm4KnRCf61hOrNkYTTQwUSdGZe+jEIKkPvmj5FKk/QlKVwpMXpZkz90JM5aKk36qPJGTu0vcn5Yq1IFE9fWZEIpAs7lfaAsli0Hk7ztgRb2/cH4y4qYRtBk3LU6mUVlmxvyTAhI7hrDtQDZYFvQ2SMEJ1D4Nv9sAfRMf9L/nAIhngTwalw1uaSocmmjiR4a+DmGrYiXeVTgx6/gWSwiUx/1/1OyC6LhT0EfR+wfehW4hlvM82dsrBdScOa9mawcKwEIPHMhnWCU/Lc+NxWoFfCRmj5XmDWlrZhAO+z3ZhZDTBcZg5WFeAZcHOBk153G7o/C8vHvc/NT0MmmiiieFB5jaICUFN+t/AvWJ4jgcak2jo+0fI5dR5C9sei2WNJZ1urFXxUGFYiMG6bFYruXzuCMvA328wMhowNbQsODLIHgZJQ+d//wnS+c+yoTNi3G56lQJRJUy0g5wC2RbGWDvIKZBtCiwgejpkBg9ExnRwnZZTMFEUUOpiFdOo7iM7kwXE+OfI/V3PRyJjLuFiLadAFlCaTwcfM+RCSNzIWZExK5jOCtQbqay0uIwJfI0OrU3iFtFm11By2QRnXOTVhD0JvOqFHJuoA74PwlYG21YHSfPD6H8gkUrtM0gWg+vYdStLUVy3g3y+cpZqOh3tDTJYGHFTCQPBBfl81aJKe32f9WIkYKrjMG8QRgLaG5H0uNBw51pX3O63BHFZ6Qyv5+hKcftc6qjL3Q50i442LF2cbcE7Ir6zGRa8KGIccKEbvKphgqVXUZQYaxkSDU2IjhlbQ4wkAZUgEw1NqK3ccrQurZZyyxCQgyjIREMTVrEwMsYyKBD0mDFKsaRKSNRgWepOiXKoCBQIiQjff2saFK6MiJkF+auijyn/+ugYZymkxTENRuLhYCB1CyTF9EX+PnW5sZJFXXpSKDRunDqT2UU2e1Bpi8enY1ntineBxFApEEwYtcTg0nyemf24OnYaRgIGQgwmuC4TBkoCphkIwK4R9pT/ySpPxvMsNdHQhLNPwIm4JppoMKwaXHataB6Ge24NMRdCoQbJYloYdtrD9yCrIGOYNW30M14gWRzYcFA2e5BkUhKD4H/f308qpZY2d5zJfT4Hvr+HXG63st62p/ZVWhwsjDhiYIkUz3mOwwtct/Ei1eHAGAMBODqEBODjVTwM/jYRvCphuD0MthvkkDPFMfUa7hRd4k6x1RDTIWK2GxQYM8V3U8hAQUzntMShpXxMB8iwn9cqIRP5byaEnkEP4JPnJUrMJN5Ol7BPfpx/ZTtqdtfZ/FAZQchxN4/yZSXmLG7EFtMBX+fd2se7ga8py1my/JpfKW1X8wocyiNBG9jKp/mJEnM+S3gT6mPv3eR4gi1iW6ezgLK72x2s4zFUzfc1WHQxVWn7IrqZ/k1iFCXDAbKoQ7txJtZdchmCsssSrrgn11J22dd9boyGR/42Q9wwWvJbC4NXFBLvD15Didgr9bZCSP1nWVAwSFJHGqRkMZi1DohBKuWTTKoS3nx+xaAf07AQg3PjcS2noFRy+YoaCMBO32ebmISaZdtVpxHqwQTLYuEAPAcO9/RwXKoo8vnBlzACeFU6/8HyMIjCg4bO+JzQsfyuB54TIznX5qEjdD4zQg4J8JrQnX23D8+K/IpZnkoM9vuwWcRM9nRicNigwJCCsEIWCiKuZWTlyYwUPMEW0qh1ia/mdC3up2xXlpczXSMG30Z3E5IVKLIcweOo0mYspyyIgVPQiUHMQAzkA2RqEyRFXF7MnOR2Quyvalv6VFF2eRt0/0aN8bogcZna1vNrSIoSzvk3gBXyTcj8BbKr1Zj4Zfp0QkZUVwRwo52r+wX3Cig8OTjbHmy0tOzW2gqF4Np0nHGk0+rUQ6lewmjFsPkY1INnxJjR1myWbaLjPSOdbhgxgIAcjFhc4cLvKxCXyweh87/H0LG/qLif+zPw36KzfW0aziuu3+zDb8T6F3gqMWiiiSYajuTD6rKzVCUG/gaIfUeN8S7SiUHP1yH5W7Ut/1V9JCFzh34M7qp6jrh4nCsh/UO1rb+3Y98HkVaG4zR2ysF1K+cJjFYMOTHY6vtsEk/7nbZNh2XxVCbDRiFjXOA4PCwMhFqBiLomRky2LM7o50jA7kyG3eI4pqbTTB1MEeu6KtMM9f5Seg1D8SUjpG/0wO/F0+9X8rDQgg0+fFt07Bd7ZWLQRBNNnPTweyEmhC7ea3Vi4PuQe1Zts5ept7NG31KTHxLH9Tl1H41INAwki2oSo22Pw7LGEo9PNxR96k8PNnQYcmKwKZfjj6KDvSydpsOy2JjN4ouRgAUNLpQ0eSSOBDQq0bDXh2eFzmeZHRCAX6bgF6Lz/4/84LgkNtFEE00YkPoJJL+ltuV/379tpX858ONpFHK5w8Ri6jRXOh1MKVQjAZY1kXy+sqTFcaZrXgiDnXgIIzD58IRGoxINbzMM7V/hws9S8CPR+f/8BLEdnl+D7+gyQSKnGSRyc0XMJEPMzBq+s5a4nlPQopKsCbhM4Pmqm5mAxWk8Fbm7M3kfUN2Q3uZiLdHQBJloaIJT/FcN8+ngq4ZERomrOV3LKQgnHkIgVfyhyCcw4XcYck0E4kzUyymLW53bCvkafAzSNdyDnSl6nCyiZE8PaiNEwRNqVGeUSAwbjRaDUragJu83dGShp0cvrJBINLbKYjar1u8IJIvjR6RkcdQSA1lyeVaNhZaGAuMSiYGrKDIGE6Pri7e7G8TQ/ju9gBiMVLxUdMYLxLl6SQLd7V3gooj1Uy29iqLERCt4RWFcDTEtzZGWWiFJQCXIREMTojwMgpjabmu1lF2WCgRjzJzoGGsaJM6JiJmlJxqakLg68teCey7ka1ATpN+mLtuLot9zIiKZPK61hW/hpUTD/iKbPVBRsgjQ06MXTEokmgZHVbFSkIDZth3pYfBYTw/bxbTEynyeqSNtKiGTAZFX0XfFfMlgYjQcBOjtomNfFDqG81w4r8pIyFwreDXRRBNDiihDI2t+8IpC4obgFYX0Z9RlO8L0aaDwfeg+TW3zPqFXWcyvHdzjaASkZBGGV6E/5MSg07a5THT0ncXObkU8zgqRpVFLpcWhwFTXZepAjIwyGXixeNL/fTogBZ8WBGAw7KGXV7EKflcieJkw3xp+D4Mo7DIkVk4Tx7zPh30i/2KSDZNCcXsycEiQtKlxdQSh4MNRkebc6kCbOmJzkAxHUbc1njhjQg6H27mNbbxLiZnFN5iJah7/J8P0wEXcrSw/y108xpeUtuX8PctQq918U+wP4G/5hrL8IFluRZ3AfTmv5BwxtfA+/k3b1r+imuHfTY6voKbH/x1na06Iq/ijtq07UB+fb2MbDwm54mu0kstHSImSyw5jtZLLtfgY+IeDssvKtsbpowg9QhYIuhOivyuQLIZhT9e9DDJP69tyRefnb9FjrBpGLQYTVldtBZOclZAWM1mDfYtv1PZbWnQzikIhOIG2PQ6ZDmfbQ13lp3EYcmLQYVkV5YojhQSMWqxwYIW4OkvJhZe5Q+9jsNnQYYdHD7b6kBWd7EIHzgwd5zMZeFAQqnPScEooZk0Ktgly9cK8Sg725WCD2M78tEoMAA6J7Rxy9KkF6V9w3NOIwVGyHOWzapxRTd9EPfiOIAYrmaRNL/QIc6MEaMQgW9B9DIxeB4fUZQ/dIll6GJT2GUYlHwNJDGKGshoFQQxS9xl8DN6okgN/E3SrPBFvJSTEh8zcA1lBRuJX6SMJmTv143Iv1duiMFwFkwxFextKSIIkw9HtXRDGiJlK2Ob7bBEyxjm2PaLJwu6eHo6I6Yqp+TxjB/uYvy46/2XFp6/B8DBYb/hFlUox35eBnHjCduOBRTLA+hz8WnTGV6dVD4PV0kzIU4lBE000MWjIPg1JdfCJuKjX4K+D2OfVNu9lOjHI3A7ZR8S2rq2/9DLoiYYDge9Dd7fKAj0PEony8FA+36gqi/VIFscPeJ+DhSEnBv/Womf8vLdQYEsux31Cxnh+Oj2iicGgwnXhXkN2vGU1luqu8+E5McS+2A48DNb78FGRBX6JB28LPQ9lRcduO2Vi0EQTTZw0yD4CSTEAGL9Wj2s5RW8rPKO3DSUsa+C+tNUli9VJQDXJ4nBgxIwYNBrLa1AG7DOML00aaiISj+s5BaVjaNSx3JGBx8ST/TXxYJrhuRx8UTzV35QOiEETTTTRxDAhqkiSZUFhf+P25/vHyeVUdYJttzaENED/JYvDgROWGNSCfbkcG8Uoxbx0mjmD4WbounCsAT4GlSbLen14lXi6f4MHNxbJkTQ3Wu6cOOZGM6skVpYwyQ5yCmRbGFNcaI/wMGixYGy0z8F44shZ6zGitPJMrmAm0Y9KMtHQhGVcoiUamiATDU04B0dLNDRBJhqacHHRXSEKMtHQhCuYxW+pfgO1GMuDNcge4616ToGUL1rjIF+D94Csi2CCPT3IKZBtEukXRm/LsSKv9lEP34eYOEHeBxvvihhGKnVEky3m82VzolKi4UAgJYuOc6hvNCGT2Uo2q6oT4vG5w0IaTmpiMKJRiS7HDAYvz4ywEs0lLLDhjCq3sA4Lro/oZE9x4ZSIz9ftBq9qmGTpiYYmNMjDQJKAJhqD2nwMoueLa/EwgIAcRMZMqiFmmrmaooRUIBhjVgSvqvvrhEIN7CF+lZ5TYJIwpj+oLttLorc9VKil/LIo2ovj1HgBDCGy2b2abDEeNzg9DQFGDDGYY9ucL/Qec2rU7O8yPEVPG4IpgamNMjKSsG14oxje/4A3uHS5Ei4Rv6jTQk+S57tgVenY51pwbcT309HsQJtoYrhQi49BraWX49fqOQX9STysB74PsZerbd4n9SmHcKLhQJDJHCSbFZU74+OxrDEnlGRxyInBeyt4AcyyrJoSDXcIErAjl+MZMR3Q4Xk4w+kOYUJPj94Wj8OrBAH4mDe0JkaL7SCnQLZBoD54W8T3OBoSDfcZpl80maIPh0QSZrsN7aG44z4cFzGtNrSWY47hcwg1A6sNh3YhctvBbRzgIaVtJq9hfGikYQ+9rOPnSsw0VjCfVUrbau5iK08obadyNTNQ7+Z/4HtIXMlblOUH+QtrWaO0XcSlzEV1y7mPx3iGXqUtxguZR0ff8nq2cytqnd3TmcPFqNlnd9DLY6g1569hkeaE+EV0EnqTsEjOcICskCvGmaCNIvToRnckxFRy97QY0QAAIABJREFUZg9k1SRz4lP0UYSMwVdAuiH6uyCnfkTsGSeOjwHUTgKGO9FwIMhmj5JMSmIQ/H8iSRZHzIiBCdt9n+eFhPGJWAyZCjIWtLZaMMm2mSzHmAaIo5kMx4ST4dh4nNYPS1keg2NkZMIqF5ZWeLJfaA1PouFWQ2ctRw/+moFNImnyzDjMCsX9zvAk8BJBPp82TL84ImZXCg6KczRXfGfHc3BEELmxaYUYABzjU2JnH0Oq3w/wEAf4uoh7jXaYO/lvrU0SA4DNqHVxOzhDIwZruVd7H4IYADzJY8ryIpZoxOAZenkA1dknhj5BfhvrtTZJDB5jBz9nu9J2DYu0931XeBgA3KS16D4GDmM1YiA9DMBsMyx9DJxxOjGIbdDfVxAddW5H43wMchsh9gexrSv16YUWwwcqiOeTzJ8q+BgIi/5G+RjUg7RQOAzkeSkov6ye9KD8cktouY10uk2J6U/iYSajX6euOwnXnabkLIxkDCkxqFRyuQV4RBTNnuc4bM9mWS98Aho5MDPJslja4JGFY9ksx5OD6GT4txWITJcFf6kyF9/oRMONho49PHqQzcCvRCf6ijQ4xQ5yUw5uF+svT8PyUAe6KQvrxHd5ZtMkqIkmGonkXeqyc5pODGKG205BEAO/F7rFVIL3N5C4sf5jarQqGyCZlF4GLcqUg+sOvDv0/SPEYmqegOeNw3WDRJRqssV4fK6WUzBcaoUhJQZ/SaVYLTrN1+aDpzJZbhnPYzi41QFDvsLeVIqD4vjm5PO0D2Yeww+0yarg/5uGcIrkO4bpj9LUgp+D/xId+9+kg7yDJppoookKyNwGsXeobelv9d8VMX2rujyC6ulp8P2DpFKqN7bjTMB1p40oyeKInkqoFR2ep0wlzHKipVaV4Hfrw84zGzzdoOAXBgLQaLp8hyHBcZUbmBu9R3zeqzy4odj5/9Ew/RGVc9BEE0000QBUqi8XvjU2+lbZ03OIZPKY0pbPj++bUojHxxtsZ+rrRqVk0fPAdQcuhWwkRh0x6PQ85KzysnicGRFXx17DSMDkoTQzem6QXQy/bHi6vzER+Bt8QjzZX+sFxOBkwdQaiN14B8YLktYuzk2rHeQUyLYQ2rCYyOORu5vJa5A5BeOFxHEKXZxpyDGQWMolzCS6ROur+ERkzDmcywKiU9BjvFDLKQgnHgIsYCZf5MrIbV3DIi2nwFSC+TeGvAMJlwk8WMNtLV/D1LE7BWqZEk7XkNlvzzD4GBiqUdfiY2DPA+/U6LgTAUlNZvj/2nv3OLnq+v7/uYFcNwm5bi6bnM2FE0gwQDiARjAQZttaBbGA/Y1WqxUvrdpqAXdrW2tbL/VE9Gvr5Wtv1rZe5uetoqBtnTGIKCou4SIoDCHMCbknXBISSALs94/ZnZ3z/rxnz9n7zO77+XjsA+Y978zMzs7u+30+n9fn9R75oUv9MdAmoFGp6++yJQhoEec/1gziyN7TUcQvxUrAnDDkzBE4uTBZcTKcNFyf5B8UYJtooV/T00L/p3J1/546vrpf7MPpCQX7RVlXUzBfvJdSaKjhp3gfZqf4XE3yHKGhxikpPAxkE1CLWaSTekuhocYCUlQwcISGGrIJqEUr8xJztCZAw0swN+rLG10fA3kCQX2cYfQx8Fqg44rkPCk0VJ/vIiitSM7LK39e6oWysDAeKwsL+257HpTSdIOpnu85isX4yQTfP7XSNOTzM8V9jXdkcVQbg2VBwDJR6HsnLV5Rcq+oFzTgnIQBNQG1XAxv3AIfF7+JP+t5f/5RxDeMUQvt+XBBP4U9yLjK/2oWevCKhIItmwDDMIYdKTTUSHMCwVsO3T8f+usZDJ1/Gb8dfsi1fRmuP5O53DPOkcVSaVbPc4yPI4uj2his7+dqv16agGZFT7BwOIyMNHI5+KAo9Pcn2+2OGn/Xz2tZ4sHr63hFYgx4AbfRm6SsDDyr5GkrCHvY6sSWsDl2+0ke43HhOzCPVcwRKwgPKEcV17HRiW3jF05sA+eL13WAiD2xmMcSZxVhF4+zg4Ox2EoWOKsItwo/BIBLxUpJxDEeJm6MfzoznFWEAq55fkZZaSgoPWtGrCJEJ6Aojiv6U91VhMg9nea4IUZPKTnKCkJ0SMmbr+TVqZdBGjKXQff25LyRIIrcH7yXdvloQM9zwol53hQ8bxqlUvKK3FhTF1sJB5Ur58eLRfYJ5clZ2SzzRriBWFZvxkjDwV+LffHVPfviyzy4qZ+r+tYxbNYOKaspcgVhhyKqXFnVfD4dwS6xxjg7gCWiQd2h/GFYKd6XZ7fA86KJm1aCU6rNjYqc5FWxlMl8m8nCw2CvMhdgBTtit59mJzv5s1jsNF7rNAYP8R328b1Y7GV81nn8O/hXJyYbg33s5Xv8l8g522kMIvbwZdG0vI7NTmNwC/ezVfgY3Mhvxm7v5DB/y8Ox2O8w32kMHuYYf0y8Gn6KFqcxyCqNwQGRE3VDuzA4CpvcxiB3xPUx0DQHbYphT/eG+O3iE9Au/ALyZ0JmhXgsobAH6P79+O1oP7T9ezwWngEd8Y8eW74CnXfFY6XrwFsi8tyPBh3Xiud8DIrx/hN/VTpHxMGSyUBpW3JeWqKom7a2uLAwDJvo6OjzLujomDrka8AoOkFbW9yXIwyn0NFRbojredxyL0NuDLoKBb4jnAevyOcJxOrAgSjiF2IjaFkQsD6T4TvKSYCL8nnHw2BREAy6MZgjVgJmD+HkQl3yrRpX98u90R+WtFcp6ourXsO9BdgptBIXZuMGR99VTIneUFWsn4zgV0JU2RLGGwOAw3JzNHQbA8OYwHQq5kWyMSg+Au1/F4/l3+c2Bls+CZ1fjMdK/zV4a+Q6WUgedgqFJ51YJqNM1RojRnXFQHoYEIb9bi8MFzM9b0SEhqPOZRnI99MADCe7lOLeu4KwJ3JtydYEfR4Gu4pwkyjaV1aZGwEUxWdheWBzEwxjgrDlRuj8TDxW+uHgGgHPg9LDyXlpiaLna4xfLq8sBMFk8vm4jmCgpxXa259wYt3dE7QxqCeOKtsXzaPdngYBvF8R8N3QUf7SGM7XeJuyFL+pp3h/L+f6GHy01Ncc/Fy5EjdzI8MwhpE0XgYwvH8Wy+OXXS+DXjKZ+t8KGCoTtjEoKtsX59YY8DRiZDIjPzHx1gLcJ36zXp0trzDc2O7mb6rTEc4NwCn4vMAHEvOm8c5Uj7ecj8Zuz+J0J2cBZ7GAs2IxKTwE2Mi1Tkzjt/md2O2lymN5LOF1QuvgscTJW8ci1hG3eNWOL/6V+L5W46ryTmcGn6LFiUlyKY805sXJNc0sL5gCeSE01I4vhilOW/pzIUxxwjNMueQufQyCcbzY1im2MIbiZRCGcSHJYMcvR9FzTqx61SAM4x+UIGisI4t10Rh4ykmANZkMC5QjjBOaWscbtxbgelHkP56HzZlyU/ANcXX/6gaYN7A8hSnRWiGqnCv+vM/0YG2Kz5AUGmpM60Afs9PHJDymJuQALOaGxJyZLGdmCg+DVaSbZKOdQJAsYnFqD4M0PgZyWJLGcman8jHwlBMIGtoJBOexmkjlIpGZlSIJ6FidnOOdBh0pZE0dm5NzvBZXaKg+1mvLX0mUPpKc468qawpkrF5I52UQFxoOhWLxJO3tz8Ri+fx0MpnpeF6f0LBRGXJjEGQyBCmutBd6XmUugiRTY/9/pE8g1C0FZYk/k4GMIsgr1uEVfqsP6/sp7GdnYElCwb40ocDO8cpfScycoJ8hw0hJGh8Db1m6Ewgd7xnc0KThoPMv4rfDD4/8guxgyecV28s6YlRXDBYOoNA/rlwdj6tGoVaL6/vwenH1f304+p/wtQFQo7gv8eDP+ynsiz14TUJhN6GhYUxYOm4of40FhcLzTiyT6VtJ0McvD3yloalpjxPr7l7S83z1IzTUGHJjsE8p4IsGUMAPRhH7xSjmFt8nr2gAssOoAZg1AoORXlDei0kAK8T38tGwrKCR5kbvD0d3NNgN+dr3XZQpf9ViyTgp7M8q2zPTxPd2XFnBmRp/b14g4gXin+NJ+I7B0X5udB6qRWwt7GUrh7knFlvK1c7Wwp38X/YTP/h+EZ9zNAb/xpud5/wDPu/EPsr7nNifEd/g3cMBtvClWCzA5/W8Mha7nQf5LPFD9O/gPC4mvjn+ae7hv4i7+nyB853thRdxv/Pafim0FREnCYg7Cb2XyXQIzUJB8THIT3J9DLYcUnwMFsR1BtFR18cgnO1uLxQeTedjUPg1dIl6kj3bNTna8m0c5PZC4efQFf9Ikr3M9TGIdkHx0XjMX+GuJESuD9WgjyGmJZOB0j3JeWmJom7axQ/fHb/c+M6FQ2XIjcGPcjnuF8cQ/7BUSt0c7C8W+ZnwQXhxvp+CNUysHsLxxZNRxEnRzEz2fU4qzcyMsdZJvDrragp6jzZuqtN1tl8phXht1Wt9MoKHxGrLggBWVeXsLkAkVl68PCytynk2gl3iZzY9hKXis3FcEWlOjTepL1DkOS6PxU7lZqcxeJZPuY+laA4Oi+I7m3NSaQ6MxqZrD3SKXjV7tpvX+Ws3pukOpMFR4LuNQe570PnDeKwU170C0PYWN9b9P25syyeU13adG0tLPS4U+/5kwvDkWL+MEaMuxIeNxslikWOimZkxCs0Mf1hjlWNzBu6qsZoy2uZGAL9QCvv5PQV5fwRfFMV4TQiXVxXjnymFeK34/vYrxyVX1WmjYxgTCGlwBHpj0KRIproHeR3leVAaRpvlQuEE7e1xW+N8fgqZzJSe5zuVjo50w78aEWsMengmiojEFX9zGI6NRfIXRZPRu71w/Si9lv7MjQDepRzx+XRP4d4bueZG68O+xsAwDGMAjIWXwUSnbhuD1mHSABxR9v1n1cMnyPP0gUmeNzqf8NsKcL/4bbsiW56f8GgR/q8o7n+U719zYBiGMQJ0dUHnh+Ox7BBOXOeFiYXvD24cc6HwDF1d8e2EbHZ6Zbpir9CwERlyY7AyCGAIRbzF9x1NQYvvs26YVPhHikVKYtm/LZ9n6Qio/E/R3gfPgxdqLPMPVwOwVVm635yBnRG8XqzXXRPCH/esPHxXLMefFZQbg4nEdPEzm64cNp+avE00CZ9TudmJSRbxo8THWsxmZvLNxLwL+CPgjxLzNKGhhhQaaixhIf+H5PNoF3OGIzTUeBfn8K4Ur00KDTU8JnOABYl5mSboTiEy75if5FxRnqIoByapz7kCulck52XPdjUF2nTF0ptSPOeFUEohSwnWQn6teE7lCGN4RfJjjSVpVhY8r2lQJwxq0dkZbwyCwMYuAz0+BkMosgs8b1Ajl5+KIh4Wx/3mBwErRuFY32TfdzQFk32fySP53D8owDbxqX9Nz6f+OmVPflsd+huk5cUJhXiOBxcnbEYuzcDShPdgmucKDTWmJv9cJ+GpI5adh0plrYMJDScoWhOg5qUcsSyFhhqZi9I9VkeaDg4ofStd3kjQKQ7WDMUlcSJTl1sJmofBg7kc+8Tph8n0HAfsJQxHpzHwPCaP1Kftxi1wo7iS/3lPEfyciG+o00/9laKwL6u6cm7x4LqEgr02xc8wjbmRYRijTto/SYMVGg4HSV4GmcwUursby8Z4OBmWscsSbeSyZKHncTCKuEdc9S8JAg52dTkjl6cimoBhZrrnccZoz0qoV1b4cGk/20Of7ud9WuzFRywbI8JTPObETlPmGhxitxObz1Intp+9TqxFsUfew34ntgT38nUXjzsxbU7CTg47Mc0iOeKYE5MWyRHu8TEPd1k3Uj6+nqKnjU4oeUqtiI4qec0i5yklxx0JQXRIyVNWESL3x5B6FaHRyGZdTcFQrofKXgbxxqDsZTB8WwyNzpAag31RxM1i//6sMHQag73FIj8UeZfk8yzxfUrKKObh3KGZ5fvMGQEzo4ZnUwZW1WjZWz14SwOPqT6inKqYJf6SPBPBM8L9ZboP00Xe01vcx5oZf2+ep0A38W2eU8jSJLYNHlO2B5YRd43Zx1Z2CV+DVm5kkRha9DA3OeZGL+WfnObgHv6bSOgaruDDTnPwb3zSeW2duIfZPyb8FQA+wZ86sQ7+24l9idfFbu/kMH/AnbHYq5nPuzg3Fos4xit5JBb7A2ZyHStisSInyRKv0jmanfkJuW7oFM1BaZLbHLQddL4FukVPldbgqPgEtP8qHsuvdQ2Oivuh/Wci78WQERqA3B2ul0HpD9zmoEk5JtgtfAaiXdAmft3DzdAhfAuinZC7KR4L1kPmEpFXY6TLYKnHRVGATGY6pVJdLroPmfH5XVUxy/NYO8gjh8ejiGeFkdE032dqvX1SP1FjT365Bz/s5+q+HoWGByPYLwp2iw8Lel7rkxE8qJgbra5qRg8XoSR0F215aK3KeaYIB0XOgrzbGDwn/RJAStK66aKbvxQ5DTCoyjAGSKdoDELcxqC4HdpFr5j/P5BRBkTVGgszGDIZKO0Y3L8dLONBaKjR0I3B2nye+SNoIfxssciTYqVjTj4/No3BZRko1LjC31xHxwj7MzcC+LiyZnt9VfNyTw4iUYyvEN/3PsXcaHUdvQeGYSQSRdD+pngsfLfeGKRdhRiLP81RpGxhNXjDUJeNwSLlCOSLstlhGaJ0NIp4SBgZzQ7DIVkkDys3dJS/NEbrU/9jpbj3ehj8tAD/Ka6035CHl/Tc/1/KCYnzTbthGMbgyeWg84PxWOn+wf9JlEOSButlEEUnaWuL62TCcDIdHRO8MbhcHNtbplzBL/Z9Viv7/As8j1cpswQWeB5n1Ou8zEZip9Jm91okX65cud/cU8A/qxT3i6y41xPzWZ8qbwlnpso7U+zr1yJQvBk0NitCSI1XE1fWrVcEilDWFFSzgWYnx2cy702hUAqaas4NjRFOTZFEWVMQe/yZbo4/F8IU4kC/BcIUxS5oS/c9TDTGwstgPDKkxmCR56UalrTQ8/jtGlfkg/EwMKrYqvgbXNPzm/DNHHxDLLt/qTQ28xNGk9k+zEn4szndL2sKZEwyM/lM1SlkkZoCKTwEV2iosYjNLBJCRo0VbGIFmxLz1vJS1vLSxLwrU2oifk8MiqrFW1K8tuXMdoSGGh4zHKGhnjeZDpLH2Waa3EmKGh0pPAW8ZldoqOadBh2Kd5aTNx86LkvOy5xb/kpCCg3V52yFbldT6uYth1IKryx/NYS/n5w3Ukg9u3kZDJy620p4PIo4IAR/C31/WLYRBso032eOWBGZNtJjkWttpp2u/CV7uOcq/j8bxN8gDUsCWCIK9oKq72WOB5sSivUsD9YlbA1N91yhocapyTlaE2AY45E0Y5Y9L/00xfwX4rdHc+p8kpfBRGZIjcFdhQI7xLrNxdmss4pwnyI9XZ/J8Pkmt9hdlM9zlxD8nZfPj0ljMNXzRkZoGEXlTbNqgqD8W3GhsDC+IaytOahHfifBtfD6hC2JdWZuZBgTgYGMhQkCCN8/vM/f3v6cE+tO45UtCMP49lUQNLa+AIbYGOzo6uJ+sW5zsXCiOBBF3CoK/eowZP0YaQiaPY8NI2BkdFJpfvq1SP5bcZX/V+Hotsv98Y5+ivtLMvCSft4/m6I44qQ3N9rlxObjmuDvZ48Ta8H10k1vbuS69LTirsvv5Cke4clYbBVzWE7c+SfiGNuFP8FqmlWDo6IwOfKZ7JgcFZSPr7a1UDii5M1S8vYpeYuUvEeVvBXx29HBspdBNX4LeGIERLQfisK7yl/q+hhE7o9WtUmO3I+KOi9hrMhkBn+McahEkbuy0KtR8LzGFxpq1N1WQr1zrFDghFglac5mOdHuCvYmj7WT4jkBNSVKN/fz2ibCFMVDysmL+eL7fkbJmR7P6VbMjZoUc6M9itvgEuFKeJSIIlfGYrN4A6uJr8s+wSM8yEdisTP4c0dzcC//zU5ui8VeyUec5uCn3MqDbIvF3sifOs3BrfyMLuJuPtfzBqc5+B6/5FbRvIS83GkObuIRbhJNxOe5AMnX2c+/8XQsdgurnLwcR7lRNAa/UDQH7S84IXWoUrvSGHSLxiA6Cu2iqIaz3cYgeso1OApb0hscycaguBvahYdU/uVuY5ArQKeQrJQ63OYgdwt03iryPuY2B1s+DZ1iFkLp39wthsJW6Ip/pMheM/I7nJkMKHr2QRNFz9PWFm9Kw/AUOjpc8et4whoD4Jko4pjQNczwfaYrn+ITXV2clOqWocwAHSqbM3BTjd+ESzPlr0YhydwI4A7FiXBj1VbLrgLsEE3aSmluFMEBkdMcuo3BMeV0xvR4Q1U2N/rzWKzJzI2MCU7XNuj8QjyWvcbNKxSgXQgV8/8xtNWBRpVX1RN11xgs9H3OE4K/hSO8xH6sWOSAuOJfmM+rjcGIc4O4wt/QI2V+uJ8r/Hr5TdgbwWOisC/z+2YnfHsLPCiaqjeWyoOVoNwU3CGK8cZ8vDFwzI0geTiuYRiNTpNykd6tzKlISz5fd+WvbhjSO3NxNutoCrTji5eKQr+4p9C/ucZS+2CEhoejiCfFVf8c32d2vRTNajwPHlCu8j2vPoSG/RkcvUPZjP1sz8/xsSJ8UxT2q/I2VMkwjFEljVOinUCozZB9DJJY6HksHIXivCOX45BY4j9/ODebEpiST1DjS0ajYallcHRbAbaIAt6RLw9W2hW5Bkebw4mhO2gQ5rKKhVyRmJfW3MgjxUF8YHXKY5lrlamMGuuZ5xgaSeEhlM2MpKGRFB4CBEzhK0wRea4wLJ/S5C6vCA3VPLEP7ysGR1AemhTLm+vm+C1lTYGMOXlLy5oCGZMEfjojpGDd+DFMiiJoa4tfdIYhdHSkMK9QCMN4AxEE43+lYfx/h8NMszIDdPJAzt0MllotcC2Doybg98TRx6tDeHcdrEjUAwtFIzdD2a6akdzslYWGyeZGUmio0YzHuUIEqHEayziPdybmnclFnMlFiXnnciHncmFi3oWcw4Wck5h3EWdwEWck5l1CW2IOwGYWpsqTUxRr5qWsD9oJBInX7I5YVvNO08csO3kLXKGhmteSbsxy5sXlr8S8i8tfSXS8q/yVRPYaV1NQj4u3UeQqUT1vUtX/j3+hocagG4N9UcTt4iz+yiDgPKEaua9QYKdQ8V+QzXKgWOSnYl//Jfk868bgTMoM32ehuOKfUUPXMHkkP91RBGI7pHKE8TLxR/SPQri+o9wUSIOjaxpU/NbilzUFMlbNJQmrQK0ZaE04DZLW3Gh68mfRzI0MwyXtn8lMBrqVo5KjRVvbCSfW3T1tDF5JfTGkFQPpYUAYOo3Bzq4utou8C8ZSxa8w3fNGRmhYq9DXeq5iEV4nlvG/nK8ff4MklvllTYGM9fKqDvoVCi7w4kJDjblWiA1jIjIUoaExMMbNVsLcIGCuuOofc+FhLucad4+i7mHQSIOjFVXF/bP9XI0v9kxo2GCkNTeCkTE4kmgag4hjTkzTGEQo428VjcGYGRztUPJWKnkPKHnrlDxl1ymzQcn7mZKnbC+kNTmKlJEfaaySRxM5sy8IBqcvmKiMm8bAG+YtiONRxLPian+a74+MRfJIcbX47Tin5+jjpgxsqlHgW73y13jmmKLXmCG+52PKyYwZ8jMWAWJFCB/E9sIT3Og81FxuiN0+SsR2ISicyRtZJcyNnmInP+faWGwBr2ID8Y3fB/kxd/K5WOwC/pAzhOZgDzvJ89VYrJ3f5RyhOdjDfj7Bf8Ri53EGrxWveReH+DO+F4tdwnLewiVIruXnTux/+Q0ndjnbndi9ynTJ84WLIsB+RZ/Qrnz0u5W6kcbgCFyDI4BupTGQBkcA3aIxiA66Bkeh5zYG0T7X4Chc6zYG0R5o/4rIO99tDKJd0Ha9yLsMOt4m8nZC2xtF3u9Axx/j0PQiN9b9SzeW5gTBQPC8wQsNjTLjpjFIw9Eo4mlR7Gf6Ps3Kp/DJXI5nxdX+4rG82v+jGv4G12RdTUHv99NoQsODyl+I6q2FJyI4JArxfL9ve+FwBJGYQTEngGVVBf1YBI8KvUZzCG3ivTqqmBvNkBWlSLcoZE18H9kYnFAaA0RjYBgTldxXofPj8VjpZ3pzMNxNRBimPKIywRh0Y7DI83h7ikJ5QTbraAp6jzCuG2XL4KeLRXYJwWNrPq82BmOC75c1BTLmeWWhoUa9vHYoGxxJercW9kfwU1G0vQDOrSra31JU6m+p+oz8Ogd7xdbMpeIz+Lg0QArjjYFhGA1Lm3LYpfuZwT9eR8eU5KQJyKj4GAwnT0YRD4vTEPODgJVjNWGjP4IApL9Bf+/HaBx7TGKXUtx7txbuKMBD4mjkb2Rhac/9f68U9r+rLuxK0T63Dn9uhmE0NOUBtvELzyCATNqzqhOcutpKeDyKOCCW+n/Z3o5c7JlC+Zh+hTCsz8ZgLF9TLXMjKBsc3ScK/JVZWObBLTm4VRTwj5X6moOfivvWBH2NgdFwLGE5awhS5Z4nvAlqGR5dQlyJVsvw6FWkOLAPvIkajkGCGxShoUY+ZW0YrMFRzby1yTmQzuAI0hkcAeRfK/Jq/LqGl8VvB4rgEcqaglieK/eoCzo7pclR05j+SW4kBt0Y3FUosEP4E1yczcZWEWp5GDQB326LX122hSGTgV1iX3+sFnqmBQHTxNX+mAkPa22sRRF8XSzPbwjKg5W2F+H9Yp/8g/nyUKX7uuC7osBfWV9HSEeUZqHXaFYKY3MaJ0u/R1MQj0nmKSI75+nwOJt7EvNOYzm/wf8m5p3RYzOURAtLuILXJuYtocURGmq0Ml8VGmq8C0VCr3AdinRfoUOZpKgxnAZHoJ9AUPNSfBupDY4Wlb8S85boY5advFZXaKjmLdeFhhqa0FAj2ADh9cl5xugx6MZgR1eX42Mg5yYAjofB8iBgyRidy5/p+7SKYj+zxms5bSRby1qF/kZlcuANHfC1HHxWFPKtPXvr/6Esz29u0LZ4RYIp68LAdSys9jWY7cG5CbqXGZ4rNFTz0ryHHlJoqDHZTJAMoyaZTPrF1fBvRvbuc/HJAAAgAElEQVS1GGXqaithpGn2vLEXGkYRrBV78R8IoaMDPqZMDqyHoUppObefwt7iwZsSinZ7wvd6eoq/HrOtCBvGeKWjgf4cNjIN2RiszeeZNwarDiejiBNCAzHF90fWJnm0WRdQc5zKxgy09VPc/7+E39qWcfQ+GQ2Lsl6nrulErlsunrK3GSmOfNr8hMi1WcBTdj+ig0qesr0QKcZK2vZC5HpYqdsL48ngyPOgVLKjiIOlrhqDRUHAIrHUf8YIq0WeiSKOiWI/w/dVi+SjuRwnpAaiXp0MV/twTY0Cf2XW1RQs6/l+L86Uv2phQsMqkkvMSSJOChOkyfjO9sIBtjqPtJDNTuxuPu3EzsWdanMb/+LENvEWJ3YzX3Jil/N7TuwrfJttPBiL/SlvdJwP/5Wt3Ea8cnyEVzrOhz+kxEfE4/05ZziDlSKOcoUwOHojM7mOVSLvJBfwRCz2XqZwg6I7aHPn5tCt1JA2pUB3KwK/tgeVvPOUvJ8oea9wY7l7oFP8WSm9ym0OcndAp3BJLF3rNge5PHTeKfLe5zYHuZuh8wci7xNuc1DcDu1/HY/l/xoyl8ZjUQRtQiAZXgsdip5goO7xaRhP12ujzaAbg4uzWUdTII8vrs9kVFOgBZ7Hm0fZw6AWB3I5jopiv6Leiv2GAN6hFHnPg2/XeK3LvdoGR8vG6W/M4QieEn9dTvPj2wsHC3BUnMhYmI07Hz65BU6IbZ25JZhc/b5F0C2PZ4bQFH/Pj5LjpDA4msMvnJe+jz9xYgu5z4kd4ltODKUxeExpNFAag4e4S8lzGwPDGElyX4XOj8VjpTv13IJiSmqnDYaXIRkcpWG4fQw0Ck2uzDhTJ42HygccI+/yf++sUeQvy5S/NBqlLd6vXF1Xby3cX4DdomBvyPY5Hz4RwQ9EIV4cwkVVhbiUcw2ONoj39GgXPC1yFk6gExmG0eC0v9KNdT87+q9jPFNXWwkTgrKRd+376pndEZTEFXmbX95e2Bu5Bkfnhn26g91F+B9xfPK38nGDo0dFwV4aJE9bNAzDMIaVQTcG39jiHq27WhS87yo5r+joIL9lCyWxfH9lqcSCOi+Mk4OAyUIDUbfCw/4Mjj6jHIt8Z8/P7nXKIe8v96y+fD/nGhy9v862XQwjgTClj0E4NWXe7JR5NYyKJMGSmvLfeF5byrw1KfPOSpfnr4bw6hSJRsMy6MZAehiA2xhIDwOg7s6bNAcBzaLYa8JDgOax2siq5XuwtQDbxPL7Ndnyfa9T7Il/1FPgpbkR9DUGxgAQf0abXKOkKQRMIT7eTvM1WMQ/pHrGC/i3VHkvR2n+FF6fcpjTa3lVChskuJbNYvajziW0OUJDDY9m7uHsFHmT2aeMgNZIO3ivw50UreednjLv/HR5mXX6mGUnb4M+ZtnJe7E+ZtnJu7j8lURakyPPg25lhLRGsAHyX3b/vTE2TPithPmjXexrFfmCUuR/t2fve7P4A/qOsDxUaVuXa3AkJy1OJOYEMEcYIElfg4VZV1MgRy7P6QCSGiXPERpqzCDd50s7gaAxm3TnwuaRzqe3hRS2eIYxwgzkz3D+lpF7HUaZcdEYjKXQ8Pko4nlxzuYU3+eUYpFuYQfdlM1CLgd/I4r5r3qW46XB0YagfGZnPLDUhzP7Wag8KwOL+tmWmOvB1Qk/5+Up/rrIJsAwjIbCTiCMPOOiMRhLTuRyPC+2TKaXSuWmQG6lKJbRDcWaANaIK/JeX4PFXnySoqTFgysTrrBNaGgYhjHmDLoxeHuKs/7ZGjntHR2jrjU4GkU8La7sZ/r+2FskjxS1zI0A/rGfn92X+ynuG61VbwQex7Ww07YWDuBa4i1Uthb2sp+d7I7FlrOUxcqe/o/5tRO7iDOd2E6e4hFhSLSKuSzntFgs4ijbiVsLrqYZj2aRd5KvirwNTCbj5IGYxkuAPlhpyyE3pukOCvug60g8ll3iuh9uuRM698djpYtc98PCA9B+RzyW3+jqDgp3Qfv3RN5vQ0aYK0V7oO0j8Vh4IXS8wf1eml7jxrq/puRtUvJuc2OFH0DXtngs+xpdP1Brl9UYfUbUx2A0PAzS8nSxyK72+HG51ny+MRoDaW60oUfkdk3W1RT0fj+1zI1g/BocJXFM+cujbS08rTiozBRNUbeS0xTPOUaBk8S3k2aQdcSHJT7OUT4fi63ge8wQeffyKQ7xX7FYwL87uoNfcgu7uDUW+y0+5jQHe4j4AfHpnJeR5WziSrWd7OYb/E8sdjW/pTYG/8zPnJjWGNzEdr7DgVjsX3iJk7edo7yHvbHYJ1nsNAYAHyPuYfxeUBUeYhovYVONvONuTPut6joCnYfjsaxJNyp0/nP8drBBL/htypDT7gNuzBh5bCthtAkC1+AIyhtnmsGR55WFhhqN0NSk5aBStKu3Fp6I4KDwUFjg901XPBzBo2IE9dwgrjs4WoS9wkthcR4WVuWciOBpkTMlxCkd3SIHoMldbTnJx8TtwKYtGoZR1wyqMdgXRewSy/Ktvh9bRTgQRewVOYt9nwPFIneIK/eN+TzrGlRRckoQcIo47niK55X1BFJT4Hnlr1rfa70X+t1K8e7VGOyNYKco3Mv9svYA9MPj1Zdu31SOrr2t6v4HcrBHaDYyopGSroeE6QSJhmEYRoVBNQa353I8IIR1bxN6gjtzOcfHoJbmoJGZ0mhF/jGluPduLeyK4BZx1b0u6Buq9LdK8f5cT/HeWYRviKvoq/N9jYFhGIbREEyYrYSZvk+ruLKf2QhHAftT5GxV9rk3Z8quh9Lg6JqwrDt4pAihKOCdedjUU/y3Klfd/U1bNOqORaRwxwGW4OGjbOwKlrOUq/ktJ6bxVlI46QDrmcd65onHPM3JW00zn2SxE5N4TOZO5iY+rwekncZbUkYda2SXuJoCbexyxwXJ7hhQFhl2pzE4Ok+f4ijxlkD3p1I8MbrQUM1ThIYamcug9L/pcsP3psszRp4J0xg0e159CA1rFXrFPpqODni4CG8Vhfyf8+WhSu9R9rnvqePhUWNNsw8zU5i+zhRHMqcoDWRT3o0JZpBhshAfarRxPaDMohWczR8DyZZzZ3AxZ5BsYbeQJbyS1yfmLaZFFRpqaEJDjUtYkSrPU04g1M6dnDIvHd6UlHnpXt6EJe2f3TozxZ3QTJjGYKicVAr6gOckRBGsFVfyHwjLvxE31r999IiyIqFgtwTQIorx3Kr3f7YH5yVsVc3wYGXCezrFK38l0ZRuFcWEhoZhNBqDagxWBgErxbK8PL64PAhYLnIWeh4LPY91dTIS+ZhS7E8WizwjHAvnZLM81ebury+qk+9j1NjYT/Fe7pc1BTLWizwjJvnNhILtpyjE0v7YMAzDGDCDagzOS3GCYP0YnjLYVXD33luV1/OoUuxb83meFaLJ40HyPmzDsMqHV9Qo8K0e3NjPVfcb+yneiz0TGhrjiuiEG9O2F6KjSp6yvRA9qeTNcWNQNjmSaIOVCncpeYruINoNRXEd5HvgCalItAuKO0TeSvCU0RuFW5XnvtSNGY1H3W4lPKFczT+cyzmxC8Ry+5Eo4lFxHHJOGKqNQUNwuu8aHPXyyRr73Mu9vkmKkmVe/5MUW624jzbP4H7WpytbEIfZ6cS0oUoPcbsTW6NoDu5VzIikuRHAL7ib7cQbxkvY6OgOfsKv+LVwU3w557AU1y7wM7gV7Z24Fe0TbOc/eDoW+zanO7qDAkf5PZH3JWY6zocATS84IboVQWLuiGtyVFrgNgfFI9AuzCbzrZBZLPKegHZR8PPrILMyHosOus6HYZveGLR/141pgsRcHjp/Ho+V/tzNK+6A9k+K1/getzGIdkL7+8VrvMYag/HCoH0MJGk8DJqAu0VxXxoEHOzq4jFxlT4FkL+rk5VYw+3DS3Oj3tWIX9S4Uu/P4GhzgzY7I8FhRdQptxaORmWTo2qafWiuynu6AMeFYHBWNq47eKEA3SJnUhaa4s/3uFIQ5xH32X2GiEd5efwlcS2eECMeZid38fvisa7qESRWP+cutvHpWKyVy5zG4AB72CrGQZ/O+WpjsJ0Sd/OrWOwSNjp5AD8STc6ZLFEbA+l6CPBO9RENwxhtBtwY7Isi/kkswa8LQ66uKtB7i0W2iqv2zfk8S3yfkhwsFIakFP+OKVPCFGr2JDyvdiNTDycmRpL9SuFuqfqe71eOXp5V1fh8XTFIuqZqVeSpIjwsTmmcno8bHO3LwdPi87daNGTHu+CEFIIqw6+6RU534DQGhmEYjUjdbiWMBs1KsT8tk2GqYsQ0rVG3IgbCLqV4924t7I7g+2IrZ03QN1gptwXuFsXyPaWy7mB/BJ8Xeo61Yd+0xYMR/FgU9RVhvDEwDMMwRoVx2RisEKchZtcwMmqrcfU+rRGu3vszPrq1APeIpe6rsmXtwWe2wC2igP9Tqaw9uCXnGhzdWOprDu5QzI9s4qIxTgmmQJp1Qn8WhLNT5M2FMJ0dBHmxU+PX+Hf5V6R7vGAN5NfEY1J4CGWhYf49bkx97g+KvNXpXotR/9RtY7AkDJGLx4uCgPkJboWzPI9Z9VrYaxXzQgHEEUmy2fJ9q5Ql9Ee6YXvRNTj6ZL6sO7inC74mivhVynK4URc0c624vUHNm8dVsdtzWa/mbeBdsdsL0P+yb+a1sdtLanguXMJGR1OgGR69lLWsSGmEpE1S1LiO1VyXIi9DM3tTGiFpQkP1MWfpUxclXjN0pDBR9eaU3Q8T8xaUv9KgnUBQ89K93Xit+gkEJ295+csYnwyqMVgnluBXiuN8i32fzeKqfbHvs8DzuFJZpl/Q3957HXO8UOB5UdCnZrNMyuXoFlqKSaUS5HLw16Jg/7rn/ZAGR0Ew/nUHw8lpPsxPuL6bGbiuhs3iPZ6VxdEUSMOjSRloSp77IYWGGtPxHKGhxmyWO0JD/TlbnfHKGgtZwkLSzQZO63oIqEJDjWWK/bFhGPXBgBuDRZ4XExpq9BoZaSwYg2J3VLlSHw575Oe7unheiinlREWjzFpRtOXw9YtEwV4kLsGuSTBImu3B2QnNZUuK6780rodgQkPDMMYtdbuVkIa7lfkC5ypNy+5cjsOigJ9ZKtXH7IR6Yl1AzV3VpR78VT9XydmO8pdGi9cnNNRY4JW/DMMwjDFnRBqDA8oVeq0VhKFwSF6tQ0NuSQyK1T68sUYRvyrragqW97z/7+yobXB0cab/SYpLrXgb9UnESSdWa6iSovRR1RVpnQ8BCnvdmDQ4AijsUPIUCUh0EIr74zG/xdUeFO6CLvGY2YvBWyQeb3fZ5KiaYI2uPSj8CLruF495OXjL3FxjfDLgxuAbW7bwgCjIbyuVYgZHX1Gshv9kos0V0AgC+GulmGcytQ2OHqnxvnkeXFejwC+3At4oDMT18Cm2x2KnsdpxPnycXRwkXikWsNLRHdzHz9hJ3OzpAjKO7mAv+/ghcRu+1bRxviKQ/DwFbhffz4e4gqXEq9ljPMVbxWNezkLeqYyA3sDdTmwb5zqxIidSOx+2DbPzYXTUdT4MZ+uNgXQ+BOhWGoPc3dD5qHjuV7t5AJ3iMYOVbmMA0CmMLkP0xqDrfuj8fjyWvVx/bmN80tBbCWPN1GzW0RSc0iOkbNJWLjyv3ARo2LbG0EjjfLhfMVGq1h2ciOCI8GqYEsAs8TM7qZwUmRxv4J6lwDO8JhabzteYJnTuh/gaR/nnWMzjf53moMS3eJxvxGIb+E/nZTzAzezmB7FYO59wXy/wMHfGbi/HVwWJ9wjXQ0BtDAzDGB9MiMZgVhDAcDgXCk6xYt7HXqUwVw9Vulspyuf2FMn7C7BLHNc8L9unO3g8goJYhVoawkVVzdeOHBwSW0vnl+LNwR5xvBOgRazIHFe8GlIdWjMMwxgfNHRjcIFy9FFjcSbD4ongXNjLTqVI924v3KYU6E09780/uWJO3tZTfO8owL+LwvrGfJ/B0Sfd7SM+2lN090fw3+Lfrg37GgOAHaIgtwYmSDQMwxgDRqQxOH0Ers41ZjfaFXstg6MoAjF0Ct8vx7aJK+nf7TE++sQW+HdRTL9TKt/3WqVI395TpD+qXDVv6rlPuh5CX2NgGHWMzxRuSDl1JVR2gjTSOh9CeZpi7PXMqpGnTEhUn3sp5IUzoWZ6lDkPSmkMiZZC6S/SPXf2cldTYMLDicWAG4OrOzoSfQxeMc5OBpxUCvrkwTQlZyoF+1h32fhIGhz1ihE/K+IbzPhoPDGDDcBbE/PmsJ45wulQG7ncwlm0cFYsphkerefFLK7hdFjNYhbxJ7w5MQ/gzWRSZS7jNL4nJkrWQhMaanhM5gbmpsrtSNkYDMT50EtnuqieQFDzUjYQoAsN1TzFAlnNsyZgwtPQWwmSI0oBr2WPXFI8EGrNTnhcOWWxyE5Z1Bdz+/Fg6GVJvv/7p3iwIMX21OTkn/00Mkzj8cS8eVzGPC5LzFvOpcmvC5zxyv2R3vkwZeUxDGNcUJeNQbEQ3wc/2NXlvNAFQcBKoRs4XCyyQ4x7XpnP06roC45OZA+EkeDchKL8clGUl1Y5G56VgUX9FOR5HrwmoRh7mfJXfwyn86FhGMY4ZUCNwb4o4vZc/DjXyiDgvBTCvgcKBe4QRXtjPs865d/e2+7ug0+TgTB0GgOjh9f0U6T/rJ+r5hv7Kc4bM7Cxn+Jcy/UQys6HLQkF14SGhmEYdcGAVwykuRFhmKoxMNDNjaBsfPQVUbA9r/x1a41ifV1HbYOjd/dTpDf187NqteJsNCaN4nwYPQlFscPkzytPXozlHYTctngsWAqZuHwEgC3fcGMdVyuv8afQ9VA8lm1Prz0wJg51uZVQb0wZrlMWtbYq+musTGg4rknrfHiEnU5sliI+LHK7E/MV3cF9/MyJrefFTuwXbGM78eb0EjaquoPP4x6FfbMi37uNR/moME36M9ayiRVO7og4HyoLX92KILF4HNqPxGP5WWVRokQ6HwJ0K41B7iHoFFbHpRqyEOl8GKI3BtL5EPTGAKDzp/HbwRprDAyXcdUYzPZ95qYs4itSeiAAzDXtwdjyuHKNN08Uz+FwPjxSgOPieOjsbFx30B3Bc8IdcVIAp8QL4NNs4Tn+LhabyT2cKor+Tn7DeUlreDB2+wg7uZvfi8XmcjUv4t3Ov72bf3BiWmNwK19yYlpjAHAv8cqzmja1MZB2yEDK8wyGYdQTddkYnJ1398EX+r6SGWeW53FWyiI+w67EXXYpxbV3e2G3cl/1UKU7laJ7QU+xvLsAJVFwN2b7dAf3F+B2oSu5OF8WJQIcKsLd4v5z8+BXFeM7laOgmapLw6OR63w4M3QFidL58HjgChK7Rc4LodMYGIZhNCoDagwWeR5vG8CVdjXrMhnWpTzi55tmoUwtQySArUoh3pwpux5+U1zRnhPApRl4LIK3iQL6yrA8bXFXBNeL+y4L+wyOvp+Dn4iC+IFSuTnYG8HXRdHdEPY1BgC/Ev+2LUgWJBqGYRijzoBXDBaN4yvtZ5VCPK3G9/t8FPGccCs81feZVCxCV/zquCmbLbsYXiGK53fyZYfD80VBviEs6xG+mnMNjnrFiO+R9sRhuTEA+Jri93+pNVvG+GVAzodpH3MqhIoAUUM6H9YiWAB54WAohYdQdjks/U66xyy9LV1e5iVQGr9/vo1hpC63EtJQKrhXzG1DXGnYoxgZrayxynE8l+N5cULj1FIJurroFvEmMYHRMHppJt1f9bnE1WRzOEfNO5c/SfV4lwrNQi3OZwPLSKdO+xBXpMrbxApVaKgxls6H3hTomJ8uVzuBoOatSpcHugWymjcA/ykTGhppGLCPwS5xldzq+7FVhPuUgr2+RsF+sFBgr7i6flE2y/wUqxJFxeugzdwIxyfz/fI0xX5zUlwHSufDZqFbmZWBqQlbZU0eTE7eTptJB5Csd2nl+sScWSxXhYYamtBQo5bQUCOt8+FSUlYywzDqmgE1Bj/O5Rwfg7dWaQ4ORBFbRcE+PQxrNgZ7u7p4TDzei+zqeuy4TBTXdUHf/69JsBy+RhTd5VVF99wMLO2nmJ6VgbP6aermefERyxrnJtzf7JW/kkjjfNhk67GGYYxfGnYrYUKwIYB31CjGnxSFeHVPIV7uwVdqFOFlHny3RgFu9fqfpLgx0zdiWbLYK3/1hwkNDcMwGgJrDKqYPgAjo1OCgFPEscpTPA+yWVdT0OtieKxGUd5fI57J1DY/6m+7ZbkVYcMYDtK6H0ZHlbwaExcLj7gxTXsQHYTivnjMX5Ree2AYg6VhGwNf8ToYKosHYGQ0dTAF2zBGkCdw7ffmKiOXAQ6wx4lp0xb3so/HxOMuo1XVHfwE14Lvpbjzg29jB/dxKBa7ktNZhivP/wTbndh1rHZiBZ7m9cL58IvMJMNMJ3dLN8hzO6Um1xY5OgFtB+OxcKouSMzths7D4jHPdJuD6EloF29T2KI3Brltrvth2pMKhjEUBtQYrAgCVoiCLI8vbhb3L+7HmOhF2ayjKUgjPIShn0AwxhlJzodHlful5uB4BMfj4lqm+jC1Ku+FCJ5Pdj48ijvWu1mIEZ8h4jHimpwZvN0RJO7iVnbw/lhsJR+kVYxiPsgO7uHvY7FzeLcjSDzAHv5/PhKLreZCfps3OK/5Nn7MvcK++F28xcnbzUH+lbjf7kW0qY3BfRziFuK+wFdyupMH8EUOO7Hr1EzDMIaLATUGScOSFnoeCwdwxZy2CTCGiceU4ris52ewK4Idoiiu9PucD+9QDJV6NQd3FmC7cDa8NNunO9hWw/lwUc/9/7sFdohruKtLfRMXHyrozodrBuJ8WITd4jGW5uPOh8eLcFjkzM7HGwOAFxSfCNEYPCcKbxmz1jYMo/5p2K2E0eKEYno0ZTANjXKMk0ymHBdHNuldRfmquDLdEJT/zdYCvFsUsL/Plw2O/n6La3D0lVJZd3BTDm4R9/1Tqdwc7CjCp8Vjvivf1xh8wT0eGhvDvE087uqgrzEodbnOhxvt9IlhGEY9MiqNwUGluC6oUVyLSgEdrEXy3kKBw6LozgkCDogjlTPDkLYa+oLHFdOjxYPxS5Cuh1AWI3Z1wcdE0extDKTr4TvC/icxGoYxrIRT47eDGuaKwaz0jop5sbviz6vxmEshLwyJTHhojAbD2hj8Q5NrKfYn3d3cnctREn4FV5ZKTnPwRBRxryjai8NwSLMTDovnnTRcI5QNo85YwEqWoDSgCqu5MHZ7GWvUvFWsYJVwKaxleHQtL4ndXkGLmnclpzuaAk14CPCtGq9LkmEmexShoUZHU7pNnYE6H6ZxP/Tm6BbI6mMqI5YNYzSwrQRjfJDkfNjsw6yEnKl+WVMgY9VMSud82My9iTnT8fB5KDGvlUtp5UeJeXNp5SLenpi3kCWq0FDjfM5LlbeUBamdD2s1ARoeNc78GYYxYlhjMJFY34974Uq/rCmQsV7e1M/x0AsysLyfYrkx62oKFlWtFv1mgn3wmgysSdi+SeN8uDohZ6rnCg01JiXnnOocfjMMw2gMrDFIYMpwbT18p0ZhzWb7NAW99G6x3Fqj2G7OwL01CuW7O8pfGpsy5S+NVq9PaKhRy/Wwl/6cDxdZkTQMw2gUmrq7h2/yUC2NwQOFAruFCPDcbFbVGBwUQ5oW+D5zh3Cs8WlF+DjTjkkahmEYhsqwNgaGYUxMdnPQidXSHDzGk06slu5gK/uc2OYa4seCcD4EVOfDAtAl/uplFedDgC2H3JgmSIyOQtuv47FwNnQo/m5bfg6d4tsqvSy9KNEwRhrbSjCMXo4rBlCOuZGSo2gOjuMeu51KfDvmGSKe4eFYbDqnM12UqF3cypPcE4t5XMUslsdiRW5nP/fHYuu43LFFPsBuvqo4H76c33de8/v5kBP7IH/pxErs51+5Ixa7lo1sVJwPb+JhviucD/+Rl6rNwfXsdmJ3KY1BxAnHEvl6plBrA0xaVAXojUHncTdmNlXGeMcag9FA2c6o6Ahq3TeYfwNwq2KkdGnPn8fblPt6NQdj6Xz4ywLsEvefl4WFKZ0PD0eu8+H8MC5I3F8YvPPh7Kqc7iI8J3JOzTvOh8e5CslUnordfoaHOcQfxl82n3MaA4An+Hrs9hzOcRoDgL18P3a7hbNqzkswDMPQSN0Y7Isidon9/1bfd2YlpOWHW1wv+UuEydCTUcRDubj734IgYJXwNTgSRUQib04Q0JrS/+DZKGKPMDKaHoY1hyod27KF54U/woxSiUnFIi8IH4ZJ+TxNAJeLYnJzvmxWFChWvge6oViEt4h/8y89/+brOfiCuOa5uVRuDv5SOcd+e8+66d8p923que+WHPxAPObHe8SPuyPX+fClYV9jsL3LdT68tEpQmeR8uKvLtUQ+z5wRDcMwxoLUjcGPczkeEMXwraXk89y1eKxTLuYBSiHeL/PC0GkMAJ5Q8tI2BoZhGIZhlLGtBMMwhkwbLVyEsvqlsJ6UdoLAx1manNTDF4XQ0Ef3L85QHrOchlJKC2KvGbqDdLkdF5pOwahvrDEwjF6m+jA1wbeiyYdJyd4WU/lmYs50Tmc+n3NiklYuZTZfTnw8n4tZwMrEvIUs5Z18OjEPdKGhxlIW8Acp7Zg3sZJNKV4n1D6BIPGYglejEdDzU+alf0jDGDdYYzAa+D78TY1i8t4acd+Hd9a4b0M/DoYf6seh8H393LcugHXi/mrDI+l82FZ1DuvSbFxTAHHDoyTnw/OyrqZgYdX9Sc6Hs734iGWNlgy0JORM9WBhwrXcJA8mJV/vyRMIGtPxVKGhhiY01DChoWEYQyW1j8FdytTD84awh39IUdbPV4SMTyp5c5S8I0reLDMyMgzDMIwBYQZHhmEYhmFUmDTWL8AwDMMwjPrBNAaGMU54gsec2FyWqbkHFEfBhcoJgF9wlxOrNYr5Dh5wYprz4W3s4H5hoXwFvup8+AnhDAlwnSLQBFjCXie2h8VOLALaxDppCHSkPKlgGOOdEW8M/oB7rpQAAAnHSURBVEUZrPSyfJ5fCCOgU5UXc3Y+jz+MXgTHoogDwgipOQhYUOM5HldMmObVMD3ql0IBxBCpykRFYRqF75eNihRNB72vc6ty3+ae+wbrfHi7ct/FPfftjqAkXmebD0t7NBx7I9gp7l/ux50PJRuq3vP/cd9nfqvqfX6oAPvF+7cuC/N6Hv9wBI/Ef67MC8Creo79BTgiHmNxtjyOuZfDBTgucmZn47bIzxXgBZFzataxRT7Mac63NFs4Hz7BDzjE22Ox+fwjc7ksFtvFrTwqTges4EO0cmksdogd3MsnY7GzeQ+n87JY7AC7+RofjsVW8WLVEvkmvuvEtMZgNwf5PD+JxV7KCrUxuJ+D3CIska9AGSoAfJHDTuw6NdMwjOFiwq0YPK0YIdVqDE6kNGFKpKsLPiAeK5stNwVZccQrly83BtL1EGBHd9kO+d3ivjeF5cZgZwR/Ie773bDcGDwWuc6Hl4d9jcGnlee7uOeyqlR0nQ/flO9rDG7Nuc6Hf1plfvXfymNvqLpkk66HgHPSe7fIaQn6GgOAQ/IxwnhjAHBE5MwK4o0BwHGRczxQ5iWInBcCdV6CYRhGI2IaA8MwDMMwKlhjYBiGYRhGhQm3lWAY45X5rGQxv5EqdxUvjt1exho170pekfr538xLY7fbaFHzrsB3NAWa8BDgW5yR+vk1oaGGB3Sb0NAwajLhfAyOKUZIM2oYIZ1QcqcMxjSpv9HKAxUfRhFsF/9mdc+/2VnjvuVeWWPwiLhvlQ/Ler6foYgP71T+7QVV+/tJ4sMDyvuzULzPjys51RqDw8r9s8VjHFVyHI2BkuNoDJQc0xgYhjFOmHCNgWEYhmEYtTGNgWEYhmEYFawxMAzDMAyjQkOJD0uFAo8Lo6BV2SyniX3/p6OI3cLIaHYQsHgYzZIMwzAMYzzSUI0BwCFhOjQvCJzGAOCwYmQ0ko1Bd6HAC8LNcVI+T5Pvwxlt8eS/CctGSVu2wMfE6+zqMQb6qnDy2xCUxYdbC7BNOO9dky2LD28twD3ivquyYy8+3KeI9arHLieJD5OEhwBPKTmnVeUMl/AQUokPn8fNOUWMWH5WyZmmjGE+wk4npo1hfoLHOMSOWGw+K1Vb5F/yUyf2Il7ixLq4i0fEY76Mi1nMolhsNwf5H+6Oxc5kaU1L5C3CPrmDdWxipZNrGMbo03CNwYThM6JheGfYZ4n8BXHfhqDcGAB8Vdx3TlBuDB4pus6H78uXG4Ndket8eFnY1xh8Pwc/EY/7gSpnw68rzoYXVGlaP9/m3v++qvu/odz/h1X3P5BznQ/bS33NwVMR3CkeY34IG6rcE48WYbd4nUvz0FLVwBwvwmGRMzsPs6tyXojghHiuSSFMiTs1HmW98y1JS+RneDiVJfJhtlPiL2KxNj6c2hJZNgYH2M1t/GcstooXq43BI+zgPlHEX8bFTh7AT3jUiWmNgWEY9Y1pDAzDMAzDqGCNgWEYhmEYFRpqK6Etk2FOqZSYN9PzODNFnmEYhmEYcczgqF6p5ZaYdN9O5b4k8eGuCHaI+1b60NrzmHco4sKNVfvuSeLDbyljlV9dtSc/1LHLT9UYu9xW9RqORrBX5MwKhMYggsMiZ2rgagyeEzmTAjg1Lmw9ivs9NYuJkc8ScYivxWIz2OBoDI6wk518MxY7jXMcjUFa8eEBdrNPCB8X4bGQpc5r3ss+JyaFh73s5qATW8oCNdcwjPrFGgPDMAzDMCqYxsAwDMMwjAoNpTEYKgMZoGQYhmEYE5EJ0xgciyJ2tMXPn88MQ6YAzwgzpKWlEseEcyLAvI4Ojm5R9o47OpxYhcFqBQzDMAxjDJgwGoOBNgZPtrmmO4u7uznc5A5yn93fW7hlC3xAmPM82HNiIhDP8d4eR8RCAd4ijHb+JT+yzoe7lCalV3y4W7lvqTUwhmEY45EJs2IwbtjW5TofXpMt//eeLtf58Kqe+27Kwc3ivn/uaVB2RXCdaFIuC+HtPSshtZwPe5uDDrdZYktPs7Qvcp0P14bxUwmfU/59tfNh0qkEgG3KyYaY82GKUwkAh5UTFrNFznNKjjiV8DwRzxFvxE7Fd2yRDcMw6g1rDIz6Z3+Xa4m8Lhu/fUjcDyCOB3JE5oTuccWnxErNtBCQxxVFziSRAxwnx/N8KBY7lV8qr9EwDKO+mFCNwcwwjN1uDgJOimmNhmEYhjGRmTCNwQzPo00TCWYy5X19wbwazonNA3VUDILyNEWN94ZurmEYhmGMIROmMRgoU2qcDjhloKcGMpm+qYiSWqcZMhnYUUPQeE22T1PQS+9ruirbpynoZXnPfesDWJ+P37es6nu5TDQpZ1U1KWsCoEZzYxiGYYwrJsypBKOBeVw5FTFPNGhPKTmniZyjSk5zVc7xqDx6uZqpPkytynkhghdEziQfJsWf6ziuQHEqNRpEwzCMOsIaA8MwDMMwKpglsmEYhmEYFawxMAzDMAyjgokPG4kogq8Lk54NAWzu2bu+VTHeubTnvseU/fVlZrZjGIZhxLHGoNGQroeE5cZgZwR/IYx3fjfsawze6lo88z2TlxiGYRhxbCvBMAzDMIwK1hgYhmEYhlHBGgPDMAzDMCqYxqCR8Dy4uR9L5g8LZ8PVft//X27OhYZhGEYyZnBkGIZhGEYF20owDMMwDKOCNQaGYRiGYVSwxsAwDMMwjArWGBiGYRiGUcEaA8MwDMMwKlhjYBiGYRhGBWsMDMMwDMOoYI2BYRiGYRgVrDEwDMMwDKOCNQaGYRiGYVSwxsAwDMMwjArWGBiGYRiGUcEaA8MwDMMwKlhjYBiGYRhGBWsMDMMwDMOoYI2BYRiGYRgVrDEwDMMwDKOCNQaGYRiGYVSwxsAwDMMwjArWGBiGYRiGUcEaA8MwDMMwKlhjYBiGYRhGBWsMDMMwDMOoYI2BYRiGYRgVrDEwDMMwDKOCNQaGYRiGYVSwxsAwDMMwjArWGBiGYRiGUcEaA8MwDMMwKlhjYBiGYRhGBWsMDMMwDMOoYI2BYRiGYRgVrDEwDMMwDKOCNQaGYRiGYVSwxsAwDMMwjArWGBiGYRiGUcEaA8MwDMMwKlhjYBiGYRhGBWsMDMMwDMOoYI2BYRiGYRgVrDEwDMMwDKOCNQaGYRiGYVSwxsAwDMMwjArWGBiGYRiGUcEaA8MwDMMwKlhjYBiGYRhGBWsMDMMwDMOoYI2BYRiGYRgVrDEwDMMwDKOCNQaGYRiGYVSwxsAwDMMwjArWGBiGYRiGUcEaA8MwDMMwKlhjYBiGYRhGBWsMDMMwDMOoYI2BYRiGYRgVrDEwDMMwDKOCNQaGYRiGYVSwxsAwDMMwjArWGBiGYRiGUeH/AfApxgUdpB4JAAAAAElFTkSuQmCC;" vertex="1" parent="1">
          <mxGeometry x="-220" y="40" width="166.62" height="148.93" as="geometry" />
        </mxCell>
      </root>
    </mxGraphModel>
  </diagram>
</mxfile>
